<svg data-name="Layer 1"
  xmlns="http://www.w3.org/2000/svg" viewBox="0 0 811.89 1194.11">
  <path fill="#f2e18c" stroke="#967a04" stroke-miterlimit="10" stroke-width="3" d="M1.5 1.5h808.89v1191.11H1.5z"/>
  <text transform="translate(132.69 443.27)" font-size="56" font-family="Apple-Chancery,Apple Chancery">Nicholas James Sinclair</text>
  <text transform="translate(308.96 748.02)" font-size="34" font-family="Apple-Chancery,Apple Chancery">in Psychology</text>
  <text transform="translate(186.41 690.66)" font-size="38.26358032" font-family="LucidaBright,Lucida Bright">BACHELOR OF SCIENCE</text>
  <rect x="185.02" y="488.47" width="459.2" height="16.65" rx="8.33" ry="8.33" fill="#8c8c8c"/>
  <rect x="185.02" y="518.47" width="459.2" height="16.65" rx="8.33" ry="8.33" fill="#8c8c8c"/>
  <rect x="185.02" y="548.47" width="459.2" height="16.65" rx="8.33" ry="8.33" fill="#8c8c8c"/>
  <rect x="185.02" y="578.47" width="459.2" height="16.65" rx="8.33" ry="8.33" fill="#8c8c8c"/>
  <rect x="185.02" y="608.47" width="295.07" height="16.65" rx="8.33" ry="8.33" fill="#8c8c8c"/>
  <path fill="#f95050" d="M281.36 1022.46l9.75-8.14-9.55-7.04 8.36-9.56-10.54-5.46 6.76-10.76-11.26-3.74 4.99-11.68-11.7-1.94 3.1-12.31-11.86-.08 1.13-12.66-11.73 1.78-.85-12.67-11.31 3.59-2.83-12.39-10.61 5.32-4.73-11.79-9.64 6.91-6.52-10.91-8.44 8.33-8.15-9.75-7.04 9.56-9.56-8.36-5.46 10.53-10.76-6.75-3.74 11.25-11.68-4.99-1.93 11.71-12.32-3.1-.08 11.86-12.66-1.14 1.78 11.73-12.67.86 3.59 11.31-12.39 2.82 5.32 10.61-11.79 4.73 6.91 9.65-10.91 6.51 8.33 8.45-9.74 8.14 9.55 7.04-8.36 9.57 10.53 5.45-6.75 10.76 11.26 3.74-4.99 11.68 11.7 1.94-3.1 12.32 11.86.08-1.14 12.65 11.73-1.78.86 12.68 11.31-3.59 2.83 12.38 10.6-5.31 4.73 11.79 9.65-6.91 6.52 10.9 8.44-8.33 8.14 9.75 7.04-9.55 9.57 8.35 5.46-10.53 10.75 6.76 3.74-11.26 11.69 4.99 1.93-11.7 12.32 3.1.08-11.87 12.65 1.14-1.78-11.73 12.68-.86-3.59-11.3 12.38-2.83-5.31-10.61 11.79-4.73-6.91-9.64 10.9-6.52-8.33-8.45z"/>
  <path fill="none" stroke="#5b5b5b" stroke-miterlimit="10" stroke-width="7" d="M332.55 999.63H559.8M332.55 1094.38h350.76"/>
  <path d="M342.95 1074.94a8.83 8.83 0 0 1 0-3.81 10.43 10.43 0 0 1 1.63-3.54 15.14 15.14 0 0 1 6.1-4.91 16.81 16.81 0 0 1 3.83-1.21 20.62 20.62 0 0 1 4-.26 38.62 38.62 0 0 1 7.76 1.14c5 1.15 9.74 2.93 14.42 3.14s9.35-.8 11.9-3.85l4.9-5.87-.5 7.82a8.77 8.77 0 0 0 1.15 5 13.24 13.24 0 0 0 3.69 4 23.49 23.49 0 0 0 10.82 4.18 44.87 44.87 0 0 0 6.2.18c2.14-.06 4.32-.21 6.56-.34a54.68 54.68 0 0 1 14.09.54c.61.11 1.21.25 1.82.42s1.22.32 1.78.51c1.13.37 2.13.72 3 1a7.75 7.75 0 0 0 2.27.34 3.78 3.78 0 0 0 1.71-.48 15.14 15.14 0 0 0 3.89-3.61 35.28 35.28 0 0 1 5.1-5.16 41.92 41.92 0 0 1 12.8-6.72 114.6 114.6 0 0 1 13.29-3.41 22.75 22.75 0 0 1 3.8-.57 9.11 9.11 0 0 1 5 1.08 7.84 7.84 0 0 1 2.14 1.83 12 12 0 0 1 1.25 1.89 27.24 27.24 0 0 0 1.39 2.54 3.69 3.69 0 0 0 1.37 1.19 5.69 5.69 0 0 0 2.07.53 25.29 25.29 0 0 0 5.88-.49 60.48 60.48 0 0 1 6.91-.89 13.91 13.91 0 0 1 13.64 6.74c1.38 2 2.43 4 3.51 5.86a16.77 16.77 0 0 0 3.5 4.62 5.66 5.66 0 0 0 2.16 1.08 5.21 5.21 0 0 0 2.51.11 33.2 33.2 0 0 0 5.92-2l6.21-2.42q6.21-2.43 12.45-4.78t12.51-4.64q-5.92 3.08-11.89 6.06t-12 5.92l-6 2.93c-1 .49-2 1-3 1.46a18.71 18.71 0 0 1-3.48 1.23 10 10 0 0 1-8-1.52 20.66 20.66 0 0 1-5-5.56c-1.28-1.92-2.37-3.8-3.6-5.4a10.67 10.67 0 0 0-4-3.48 10.52 10.52 0 0 0-5.18-.54c-2 .19-4 .66-6.26 1.08a30.57 30.57 0 0 1-7.35.76 11.9 11.9 0 0 1-4.36-1 10 10 0 0 1-3.73-3 27.43 27.43 0 0 1-2-3.21c-.47-.81-.8-1.11-1-1.18a2.85 2.85 0 0 0-1.43-.15 21.68 21.68 0 0 0-2.76.5 108.34 108.34 0 0 0-12.47 3.32 35.11 35.11 0 0 0-10.64 5.66 33.93 33.93 0 0 0-4.23 4.32 21.1 21.1 0 0 1-6 5.19 10.71 10.71 0 0 1-4.68 1.21 14.47 14.47 0 0 1-4.29-.62c-1.25-.35-2.33-.76-3.31-1.08-.49-.17-.95-.29-1.42-.42a13.71 13.71 0 0 0-1.42-.34 54.81 54.81 0 0 0-12.45-.64 84 84 0 0 1-13.85-.28 28.11 28.11 0 0 1-13.54-5.82 18.71 18.71 0 0 1-4.92-6 14 14 0 0 1-1.42-7.94l4.4 1.95a15.54 15.54 0 0 1-3.62 2.77 16.65 16.65 0 0 1-4.13 1.54 24.46 24.46 0 0 1-8.29.3 36.79 36.79 0 0 1-4-.74c-1.3-.33-2.54-.71-3.77-1.11-2.45-.8-4.79-1.71-7.14-2.48a36 36 0 0 0-7.09-1.67 20.87 20.87 0 0 0-3.56-.09 14.89 14.89 0 0 0-3.47.73 14.21 14.21 0 0 0-6 3.88 9.72 9.72 0 0 0-1.9 3.1 9.05 9.05 0 0 0-.18 3.58zM336.39 980.63a17.28 17.28 0 0 1-1-8.94 18.11 18.11 0 0 1 3.67-8.52l1.08-1.35 1 1.6c3.92 6.57 10.83 10.82 18.09 12.28a29.67 29.67 0 0 0 11 .31 25.17 25.17 0 0 0 9.83-3.84l2.08-1.59 2.21-2a26.42 26.42 0 0 1 5.53-4 11.59 11.59 0 0 1 4-1.2 9.43 9.43 0 0 1 4.52.67 12.39 12.39 0 0 1 3.47 2.26c.91.82 1.63 1.62 2.3 2.31a15.12 15.12 0 0 0 1.8 1.67 7.44 7.44 0 0 0 .73.44c.23.14.51.17.74.3a6.07 6.07 0 0 0 3.66-.36 7.34 7.34 0 0 0 3.19-2.43 4.66 4.66 0 0 0 1-3.17l-.28-3.18 3.1-.63a8.25 8.25 0 0 1 5.4.86 10.81 10.81 0 0 1 3.52 3.12 18.7 18.7 0 0 1 3.16 7.28 37.85 37.85 0 0 0 1.45 5.72 7.44 7.44 0 0 0 1.06 1.94 3.09 3.09 0 0 0 1.26 1l-3.87 1.36c3.15-5.07 6.31-10.15 9.53-15.17l2.41-3.78.61-1a13.12 13.12 0 0 1 .8-1.13 7.41 7.41 0 0 1 2.6-2.18 4.67 4.67 0 0 1 2.3-.45 4.53 4.53 0 0 1 2.26.8 4.88 4.88 0 0 1 1.42 1.56 7.91 7.91 0 0 1 .64 1.43c.3.86.46 1.6.64 2.14a5.48 5.48 0 0 0 .76 1.41c1.27 1.75 3.86 2.88 6.52 3.36s5.73.43 8.81.82a17.82 17.82 0 0 1 4.61 1.14 9.69 9.69 0 0 1 3.91 2.85 8.78 8.78 0 0 1 2 4.27 6.45 6.45 0 0 1-.1 2.34 5.22 5.22 0 0 1-1.08 2 5.28 5.28 0 0 0 .7-2.07 5.9 5.9 0 0 0-.23-2.11 8.31 8.31 0 0 0-2.28-3.48c-2-2-4.87-2.36-7.71-2.43s-5.81.38-9.08.14a18 18 0 0 1-4.85-1.1 11.52 11.52 0 0 1-4.48-3 9.82 9.82 0 0 1-1.57-2.46c-.36-.85-.59-1.57-.83-2.1a3 3 0 0 0-.33-.59c-.09-.12-.14-.11-.09-.07a.31.31 0 0 0 .17.09h.14a3.54 3.54 0 0 0-.7.79 8.18 8.18 0 0 0-.45.73l-.53 1-2.17 3.92c-2.88 5.24-5.82 10.43-8.77 15.63l-1.29 2.27-2.58-.91a9.56 9.56 0 0 1-4-2.76 13.75 13.75 0 0 1-2.21-3.64 38.54 38.54 0 0 1-2-6.81 12 12 0 0 0-2-4.54 4.37 4.37 0 0 0-1.29-1.17 1.24 1.24 0 0 0-.89-.15l2.82-3.81a11.63 11.63 0 0 1-2.28 8.09 14 14 0 0 1-6.23 4.76 13 13 0 0 1-8.1.58 14.27 14.27 0 0 1-2-.81 12.81 12.81 0 0 1-1.81-1.15 21.63 21.63 0 0 1-2.56-2.44c-.71-.76-1.33-1.46-1.89-2a5.88 5.88 0 0 0-1.49-1.07 3.58 3.58 0 0 0-3.07.24 20.57 20.57 0 0 0-4.24 2.92l-2.35 1.93-2.77 1.94a29.28 29.28 0 0 1-12.52 4.14 34.46 34.46 0 0 1-12.86-1.18 33.32 33.32 0 0 1-11.33-5.83 27 27 0 0 1-7.79-9.93l2 .25a17.12 17.12 0 0 0-4.18 7.21 18 18 0 0 0-.37 8.66z" fill="#333"/>
  <path d="M355.95 182.17a7.28 7.28 0 0 1-3-2.24 6.29 6.29 0 0 1-4.11 2.24zM608.56 203.43c-2.24 0-3 1.87-3 3.74 0 2.24.75 3.74 2.62 3.74 2.24 0 3-1.87 3-3.74s-1.12-3.74-2.62-3.74zM319.33 169.42l-3.37 3.74h-4.48l-3.74-3.74-3.74 3.74h-4.48l-2.99-3.74v7.1h22.8v-7.1zM310.74 182.17c-3.74 0-5.23 2.62-9 2.62s-5.23-2.62-9-2.62-5.23 2.62-9 2.62-5.23-2.62-9-2.62c-3.36 0-4.86 2.62-8.22 2.62s-5.61-2.24-8.22-2.24v22.42c0 4.86 3.74 11.58 8.22 11.58 3.36 0 4.86-2.62 8.22-2.62 3.74 0 5.23 2.62 9 2.62s5.23-2.62 9-2.62 5.23 2.62 9 2.62 5.23-2.62 9-2.62c3.36 0 4.86 2.62 8.22 2.62 4.48 0 8.22-6.73 8.22-11.58V182.5c-2.62 0-4.86 2.24-8.22 2.24s-4.9-2.57-8.22-2.57zm.37 29.15h-36.62v-24.33h36.57z" fill="none"/>
  <path fill="none" d="M281.58 206.79l1.5 2.61 1.49-2.61h2.99l-1.49-2.62 1.49-2.61h-2.99l-1.49-2.62-1.5 2.62h-2.99l1.5 2.61-1.5 2.62h2.99zM520 164.17c-8.22 0-10.09 6.35-10.09 12.71 0 7.47 3 13.83 9.34 13.83 8.22 0 10.09-6 10.09-12.71 0-7.46-2.99-13.83-9.34-13.83zM350.72 171.66a5.61 5.61 0 1 0-5.61 5.61 5.75 5.75 0 0 0 5.61-5.61zm-8.22 0a2.62 2.62 0 1 1 2.62 2.62c-1.5-.37-2.62-1.11-2.62-2.62zM602.96 180.63h8.96l-4.48-11.21-4.48 11.21zM345.11 195.58c4.48 3 7.47-5.61 7.47-5.61-7.09-.37-9.71 3.74-7.47 5.61zM358.19 191.1a10 10 0 0 1-3.74 6.35c1.87 0 5.23.37 6-2.24.36-2.24-1.88-3.74-2.26-4.11zM496.83 203.43c-2.24 0-3 1.87-3 3.74 0 2.24.75 3.74 2.62 3.74 2.24 0 3-1.87 3-3.74s-1.12-3.74-2.62-3.74zM287.19 197.07l1.49 2.62 1.5-2.62h2.99l-1.5-2.61 1.5-2.62h-2.99l-1.5-2.62-1.49 2.62h-2.99l1.49 2.62-1.49 2.61h2.99zM230.39 166.43c-3-2.24-4.48-3-5.61-2.62-1.12 0-3 3.36-3 3.36a22.42 22.42 0 0 1 8.61-.74zM289.43 169.42l-3.36 3.74h-4.49l-3.73-3.74-3.74 3.74h-4.48l-2.99-3.74v7.1h22.79v-7.1zM294.29 204.17l-1.5 2.62h2.99l1.5 2.61 1.49-2.61h2.99l-1.49-2.62 1.49-2.61h-2.99l-1.49-2.62-1.5 2.62h-2.99l1.5 2.61zM301.39 197.07l1.49 2.62 1.5-2.62h2.99l-1.5-2.61 1.5-2.62h-2.99l-1.5-2.62-1.49 2.62h-2.99l1.49 2.62-1.49 2.61h2.99zM296.53 223.98l-3.74-3.74-3.73 3.74h-4.49l-2.99-3.74v7.1h22.8v-7.1l-3.37 3.74h-4.48z"/>
  <path d="M481.14 206.79l-1.87-1.87a3.73 3.73 0 0 0-1.49-1.87l-1.87.37v.37c.75 0 .75 0 1.12.37a.8.8 0 0 1 .75.75l1.12 1.87a1.37 1.37 0 0 0 .37 1.12v2.62h-.75v.37h3.74v-.37h-.75v-3c.37-.37.37-.75.75-1.12l2.24-3.36v-.37h-1.12zM520 161.58c-10.09 0-16.82 5.61-16.82 16.07s6 15.69 16.07 15.69 16.81-5.61 16.81-16.07-6-15.69-16.06-15.69zm-.75 29.15c-6.35 0-9.34-6.35-9.34-13.83 0-6.35 1.87-12.71 10.09-12.71 6.35 0 9.34 6.35 9.34 13.83 0 6.72-1.87 12.7-10.09 12.7zM527.85 202.68v.37h.75l.37.37v.37l-1.12 4.86-1.87-4.11c-.37-.75-.37-1.12-.75-1.87h-.75l-.75 1.49-1.87 4.48-.75-4.48v-.37a.37.37 0 0 1 .37-.37h.37v-.37h-3.74v.37h.37a.37.37 0 0 1 .37.37l1.87 7.47h.75c.37-.37.37-1.12.75-1.49l1.87-4.48 1.87 4.86c0 .75.37 1.12.37 1.49h.73c0-.75.37-1.12.37-1.87l2.62-6c0-.37 0-.75.37-.75h.37v-.37h-3zM505.8 201.93h-1.87v.37h.37a.37.37 0 0 0 .37.37v7.5h-.75v.37h4.14v-.37h-1.12v-3.36h1.49c.37 0 .75 0 .75.37v.75h.37v-2.62h-.37v.75c0 .37-.37.37-.75.37h-1.49v-3a1.39 1.39 0 0 0 1.49-1.12c.75 0 1.49 0 1.49.37v1.12h.37v-1.87h-4.48zM496.83 202.68c-3 0-4.86 1.49-4.86 4.48s1.49 4.48 4.48 4.48 4.86-1.49 4.86-4.48-1.49-4.48-4.48-4.48zm-.37 8.22c-1.87 0-2.62-1.49-2.62-3.74 0-1.87.75-3.74 3-3.74 1.49 0 2.62 1.87 2.62 3.74s-.76 3.74-3 3.74zM535.7 201.93h-1.87v.37h.37a.37.37 0 0 0 .37.37v6.73c0 .37 0 .75-.37.75l-.37.37v.37h6v-1.87h-.37l-.4 1.15c0 .37-.75.37-1.49.37h-1.51v-3.37h1.49c.37 0 .75 0 .75.37v.75h.37v-3h-.75v.75c0 .37-.37.37-.75.37h-1.49v-3c.37 0 .75 0 1.49-1.12.75 0 1.49 0 1.49.37v1.12h1.49v-1.87h-4.48zM492.72 190.72h-1.49c-1.12-.37-1.87-.37-1.87-.75-.37-.75-.37-1.87-.37-3.74v-21.3h5.23c1.12 0 2.24 0 2.62.37 0 .37.37.75.37 1.12l.37 3h1.48c.37-3 .37-4.86.75-7.1l-.37-.37h-27.65l-.37.37a37.65 37.65 0 0 1 .75 7.1h1.89l.37-3c0-.37.37-.75.37-1.12s1.49-.37 2.62-.37h5.23v21.3c0 1.87 0 3.36-.37 3.74a2.2 2.2 0 0 1-1.87.75h-1.49v1.87h13.83zM593.62 202.68v1.87h.37v-1.12h1.49v7.1h-.75v.37h3.74v-.37h-.75v-6.73h3.34v1.12h.37v-2.24h-7.85zM548.06 210.17c0 .37-.75.37-1.49.37h-1.51v-6c0-.37 0-.75.75-1.49h.75v-.37h-3.74v.37h.75v6.73c0 .37 0 .75-.37.75l-.37.37v.37h6v-2.24h-.37zM585.77 207.91v.75h.75c.37 0 .75 0 .75.37v1.49a2.25 2.25 0 0 1-1.49.37c-2.24 0-3.36-1.87-3.36-4.11a3.14 3.14 0 0 1 3.36-3.36c1.12 0 2.24 0 2.62.75v1.12h.37a4.74 4.74 0 0 0 .37-2.24 5.55 5.55 0 0 0-3.36-.75c-2.62 0-4.86 1.49-4.86 4.48s1.87 4.48 4.86 4.48a11.06 11.06 0 0 0 3.74-.75v-2.62h-3.74zM577.92 189.98a2.2 2.2 0 0 1-1.87.75h-1.49v1.87h13.83v-1.87h-1.49c-1.12-.37-1.87-.37-1.87-.75-.37-.75-.37-1.87-.37-3.74V168.3c0-1.87 0-3 .37-3.36a2.2 2.2 0 0 1 1.87-.75h1.49v-1.87h-13.83v1.49h1.5c1.12.37 1.87.37 1.87.75.37.75.37 1.87.37 3.74v17.94c0 1.87 0 3.36-.38 3.74zM608.56 202.68c-3 0-4.86 1.49-4.86 4.48s1.49 4.48 4.48 4.48 4.88-1.47 4.88-4.47-1.51-4.49-4.5-4.49zm-.37 8.22c-1.87 0-2.62-1.49-2.62-3.74 0-1.87.75-3.74 3-3.74 1.49 0 2.62 1.87 2.62 3.74s-.76 3.74-3 3.74zM575.31 202.31v.37h.37l.37.37v5.61l-3.73-4.49c-.37-.37-.75-1.12-1.12-1.49h-2.62v.37h.37l.37.37v6.75c0 .37 0 .37-.37.37h-.37v.37h3v-.37h-.37l-.37-.37v-6l4.11 4.86c.37.75 1.12 1.12 1.49 1.87h1.12v-7.85c0-.37 0-.37.37-.37h.37v-.37h-3zM466.56 202.68v1.87h.37v-1.12h1.49v7.1h-.75v.37h3.74v-.37h-.75v-6.73h3.4v1.12h.37v-2.24h-7.87zM569.33 193.34v-1.87c-.75-.37-1.49-.37-1.87-.75s-.75-1.12-1.12-1.49l-7.85-12.33c3.74-1.49 6.73-4.11 6.73-7.85 0-5.61-4.11-6.73-8.59-6.73h-16.45v1.49h1.49a2.2 2.2 0 0 1 1.87.75c.37.75.37 1.87.37 3.74v17.94c0 1.87 0 3.36-1.49 4.86a2.2 2.2 0 0 1-1.87.75h-1.49v1.87h13.83v-1.87h-1.49c-1.12-.37-1.87-.37-1.87-.75-.37-.75-.37-1.87-.37-3.74v-21.67a8.23 8.23 0 0 1 3-.37c3.36 0 6 1.87 6 5.61 0 4.11-3 6.73-7.1 6.35l-.37.75 10.09 15.32h8.59zM623.14 202.31v.37h.37a.37.37 0 0 1 .37.37v5.61l-3.73-4.49c-.37-.37-.75-1.12-1.12-1.49h-2.62v.37h.37a.37.37 0 0 1 .37.37v6.75c0 .37 0 .37-.37.37h-.37v.37h3v-.37h-.35l-.37-.37v-6l4.11 4.86c.37.75 1.12 1.12 1.49 1.87h1.12v-7.85c0-.37 0-.37.37-.37h.37v-.37h-3zM557.74 210.17c0 .37-.75.37-1.49.37h-1.49v-6c0-.37 0-.75.75-1.49h.75v-.37h-3.74v.37h.75v6.73c0 .37 0 .75-.37.75l-.37.37v.37h6v-2.24h-.37zM623.14 188.85l-11.58-26.91h-3l-.75 1.87-.75 1.87-1.12 3-8.22 19.43c-.75 1.12-1.49 2.62-2.62 2.62h-1.49v1.44h9.72v-1.49h-2.27c-.75 0-1.87-.75-1.12-2.62l1.87-4.86h11.25l3.36 4.86c.37 1.49 0 2.62-.75 2.62h-2.24v1.49h13.45v-1.49h-1.12a2.49 2.49 0 0 1-2.62-1.83zm-20.18-8.22l4.48-11.21 4.48 11.21zM255.8 162.32v42.6c0 19.81 35.5 35.13 37 35.13s37.37-15.69 37.37-35.13v-42.6H255.8zm10.84 7.1l3 3.74h4.48l3.74-3.74 3.74 3.74h4.46l3.36-3.74v7.1h-22.78zm37.74 57.92h-22.79v-7.1l3 3.74h4.47l3.74-3.74 3.74 3.74h4.52l3.36-3.74zm22.79-22.42c0 4.86-3.74 11.58-8.22 11.58-3.36 0-4.86-2.62-8.22-2.62-3.74 0-5.23 2.62-9 2.62s-5.23-2.62-9-2.62-5.23 2.62-9 2.62-5.23-2.62-9-2.62c-3.36 0-4.86 2.62-8.22 2.62-4.48 0-8.22-6.73-8.22-11.58V182.5c2.62 0 4.86 2.24 8.22 2.24s4.86-2.62 8.22-2.62c3.74 0 5.23 2.62 9 2.62s5.23-2.62 9-2.62 5.23 2.62 9 2.62 5.23-2.62 9-2.62c3.36 0 4.86 2.62 8.22 2.62s5.61-2.24 8.22-2.24zm-30.64-35.5l3 3.74h4.48l3.74-3.74 3.74 3.74h4.48l3.36-3.74v7.1h-22.79zM561.48 203.05v.37h.75v7.47h-.75v.37h3.74v-.37h-.75v-7.47h.75v-.37h-3.74zM364.92 173.17a2.49 2.49 0 0 0 2.62-1.87 17 17 0 0 1 10.09 4.11s-3-11.58-14.95-11.58c-5.61 0-8.22 2.24-8.22 2.24s-3.74-5.61-10.09-5.61c-8.22 0-11.58 4.86-11.58 4.86v13.85a13 13 0 0 0 6 3.74s0 1.49-1.12 1.87a10.45 10.45 0 0 0-4.48 3v23.54h28.77a4 4 0 0 0-3-2.24c6.73 1.87 17.94 0 17.94-11.58 0-8.22-7.1-12.33-10.84-13.45 2.62 0 9.34-3 11.58-7.47 0 0-2.24 1.87-10.09 1.87.37-1.12-.75-2.62-2.24-3s-3-.37-3.74.75l-1.49-.75a2.05 2.05 0 0 0 1.12-1.87c.37-.37 0-.75 0-1.12l1.12-.75a3.15 3.15 0 0 0 2.6 1.46zm-12 6.73a7.28 7.28 0 0 0 3 2.24h-7.1a6.29 6.29 0 0 0 4.14-2.25zm-13.45-8.22a5.61 5.61 0 1 1 5.61 5.61 5.75 5.75 0 0 1-5.57-5.63zm5.61 23.92c-2.24-1.87.37-6 7.47-5.61.04-.01-2.95 8.58-7.44 5.59zm15.32-.37c-.75 2.62-4.11 2.24-6 2.24a10 10 0 0 0 3.74-6.35c.43.35 2.67 1.85 2.3 4.05z" fill="#004d3c"/>
  <path d="M347.73 171.66a2.62 2.62 0 1 0-5.23 0c0 1.49 1.12 2.24 2.62 2.62a2.55 2.55 0 0 0 2.61-2.62zM393.32 202.68v.37h.37a.37.37 0 0 1 .37.37v4.11c0 1.87 0 3-2.24 3s-2.24-1.12-2.24-3v-4.11c0-.37 0-.37.37-.37h.37v-.37h-3.74v.37h.37l.37.37v5.61c0 1.49 1.12 2.62 4.86 2.62q3.36 0 3.36-3.36v-4.86c0-.37 0-.37.37-.37h.37v-.37h-3zM405.28 202.31v.37h.37a.37.37 0 0 1 .37.37v5.61l-4.1-4.49c-.37-.37-.75-1.12-1.12-1.49h-2.62v.37h.37l.37.37v6.35c0 .37 0 .75.37.37 0 .37 0 .37-.37.37h-.37v.37h3v-.37h-.37l-.37-.37v-6l4.11 4.86c.37.75 1.12 1.12 1.49 1.87h1.12v-7.85c0-.37 0-.37.37-.37h.37v-.37h-3zM410.51 203.05v.37h.75v7.47h-.75v.37h3.74v-.37h-.75v-7.47h.75v-.37h-3.74zM218.43 182.17c2.24 0 5.23 1.87 6.35 2.24s2.62-.75 2.24-2.62-3.36-2.24-6-3c-1.87-4.11 1.87-4.11 1.87-4.11 3 0 3.74 3 4.86 5.23 2.62 7.85-3.74 7.1-3.74 7.1-6.73 0-5.23-2.62-5.23-3.74a6.31 6.31 0 0 0-1.87.75 9.05 9.05 0 0 1-4.11 8.22l.37.75c2.24-1.87 16.44-2.24 21.67-3.36 5.61-1.12 5.23-4.11 5.61-7.47 1.49-11.58 4.11-11.58 7.85-12.33 4.48-1.12 3.74-3.74 3.74-6-2.24 2.62-6 3.36-9 3.36v-1.12c7.85.37 9.34-6 9.34-6-4.11 1.49-6 1.87-14.57 1.49-3.74-.37-22 0-23.17 3.74a4.13 4.13 0 0 0 .37 2.62 3.14 3.14 0 0 0-1.12 3c.37 2.62 3 6 5.23 7.85-4.48 0-5.23 1.87-9.72 1.87s-5.61-1.12-7.1-2.62c4.55 8.97 12.02 4.15 16.13 4.15zm6.35-18.31c1.12-.37 2.62.37 5.61 2.62a22.42 22.42 0 0 0-8.59.75s1.87-3.41 2.99-3.41zM274.49 211.28h36.57v-24.29h-36.57zm23.92-19.43h3l1.49-2.62 1.49 2.62h3l-1.49 2.62 1.49 2.62h-3l-1.49 2.62-1.49-2.62h-3l1.49-2.62zm-1.12 7.1l1.49 2.62h3l-1.51 2.6 1.49 2.62h-3l-1.49 2.62-1.49-2.62h-3l1.49-2.62-1.49-2.62h3zm-13.08-7.1h3l1.49-2.62 1.49 2.62h3l-1.49 2.62 1.49 2.62h-3l-1.49 2.62-1.49-2.62h-3l1.49-2.62zm-5.61 9.72h3l1.49-2.62 1.49 2.62h3l-1.52 2.6 1.49 2.62h-3l-1.49 2.62-1.49-2.62h-3l1.49-2.62z" fill="#004d3c"/>
  <path d="M242.35 181.01c-.37 7.47-1.49 10.09-10.84 10.84-9 .75-12 .75-13.45 2.62l1.49 1.49c-4.49.37-10.49 8.21-10.49 8.21l1.87 1.87c-1.49 1.49-3 5.61-3 5.61h44.84v-29.9c-4.44 5.61-8.18 2.25-10.42-.74z" fill="#004d3c"/>
  <path d="M242.72 178.39c-.37 1.87 2.24 4.48 4.48 4.48 7.47 0 6-12 4.86-13.45-3.36 2.62-8.21-.37-9.34 8.97zM467.68 188.48l-.75-.37a17.36 17.36 0 0 1-8.59 2.24c-8.22 0-13.08-5.61-13.08-13.83 0-7.1 3.74-12.33 11.21-12.33a10.4 10.4 0 0 1 7.85 3l.37 3.74h1.87c.37-1.87.75-5.23 1.12-6.73l-.37-.37a23.55 23.55 0 0 0-10.84-2.24c-9.34 0-17.56 5.23-17.56 15.32 0 10.84 7.47 16.44 17.56 16.44a19.39 19.39 0 0 0 10.09-2.62zM446.76 210.17l-2.24-3.36a2.37 2.37 0 0 0 1.87-2.24c0-1.49-1.49-1.87-2.62-1.87h-1.49c1.12 0 1.87.37 1.87 1.49a1.77 1.77 0 0 1-1.87 1.87v.37l3 4.48h2.24v-.37h-.37zM406.06 162.32v1.49h1.87c.75 0 1.49.37 1.49 1.12 0 1.12-.75 2.62-1.49 4.48l-6 15.69-7.1-17.19c-.37-.75-1.12-2.24-.75-3.36 0-.37.37-.75 1.12-.75h2.24v-1.49h-14.2v1.49h1.82c1.49.37 2.24 2.24 2.62 3.36l10.46 25.41h3.36c.75-1.49 1.12-3 1.87-4.48l9.34-22c.75-1.49 1.12-2.24 2.24-2.24h1.49v-1.49h-10.38zM439.28 209.78h-.75v.39h1a2 2 0 0 1-.25-.39zM459.06 203.05v.37h.75v7.47h-.75v.37h3.74v-.37h-.74v-7.47h.75v-.37h-3.75zM454.23 206.79l-1.49-.37c-1.12 0-1.49-.37-1.49-1.12a1.71 1.71 0 0 1 1.87-1.49 2.83 2.83 0 0 1 1.49.75v1.12h.37v-1.87a4.74 4.74 0 0 0-2.24-.37c-1.87 0-3.36.75-3.36 2.62a2.37 2.37 0 0 0 1.87 2.24l1.87.37a1.19 1.19 0 0 1 1.12 1.12 1.71 1.71 0 0 1-1.87 1.49 2.55 2.55 0 0 1-1.87-1.12v-1.12h-.37a6.58 6.58 0 0 1-.37 2.24 6.93 6.93 0 0 0 2.62.75c1.87 0 3.74-.75 3.74-3a2.37 2.37 0 0 0-1.89-2.24zM438.91 202.68v.37h.37l.37.37v6.35a1.58 1.58 0 0 1 0 .37h2.64v-.37h-.75v-7.1h-2.62zM439.63 210.17h-.13c.08.06.11 0 .13 0zM423.59 203.05v.37h.75a.37.37 0 0 1 .37.37 1.85 1.85 0 0 1-.37 1.12l-1.87 4.48-1.87-4.86a1.16 1.16 0 0 1-.37-.75.37.37 0 0 1 .37-.37h.75v-.37h-4.11v.37h.37a.8.8 0 0 1 .75.75l3 7.1h1.12c0-.37.37-.75.37-1.12l2.62-6c.37-.37.37-.75.75-.75h.37v-.37h-3zM434.43 190.72h-1.49c-1.12-.37-1.87-.37-1.87-.75-.37-.75-.37-1.87-.37-3.74V168.3c0-1.87 0-3 .37-3.36a2.2 2.2 0 0 1 1.87-.75h1.49v-1.87H420.6v1.49h1.46c1.12.37 1.87.37 1.87.75.37.75.37 1.87.37 3.74v17.94c0 1.87 0 3.36-.37 3.74a2.2 2.2 0 0 1-1.87.75h-1.49v1.87h13.83zM431.44 201.93h-1.87v.37h.37a.37.37 0 0 0 .37.37v6.73c0 .37 0 .75-.37.75l-.37.37v.37h6v-1.87h-.37l-.37 1.12c0 .37-.75.37-1.49.37h-1.49v-3.34h1.49c.37 0 .75 0 .75.37v.75h.37v-3h-.4v.75c0 .37-.37.37-.75.37h-1.49v-3c.75 0 1.12 0 2.24-1.12.75 0 1.49 0 1.49.37v1.12h.37v-1.87h-4.48z" fill="#004d3c"/>
  <path fill="none" d="M379.49 148.49h3.36l-1.49-3.73-1.87 3.73zM319.7 148.49h3.36l-1.49-3.73-1.87 3.73zM571.57 148.49h3.36l-1.5-3.73-1.86 3.73zM268.88 148.49h3.36l-1.49-3.73-1.87 3.73zM397.43 143.26c-2.24 0-3.36 1.49-3.36 3.74s1.12 4.48 3.36 4.48 3-1.49 3-4.11c.36-2.2-.76-4.11-3-4.11zM555.87 148.49h3.36l-1.49-3.73-1.87 3.73zM482.63 143.26c-2.24 0-3.36 1.49-3.36 3.74s1.12 4.48 3.36 4.48 3-1.49 3-4.11c.37-2.2-.76-4.11-3-4.11zM499.45 143.26c-2.24 0-3.36 1.49-3.36 3.74s1.12 4.48 3.36 4.48 3-1.49 3-4.11c.36-2.2-.76-4.11-3-4.11zM343.99 148.49h3.36l-1.49-3.73-1.87 3.73zM601.46 148.49h3.36l-1.49-3.73-1.87 3.73zM459.84 143.26c-2.24 0-3.36 1.49-3.36 3.74s1.12 4.48 3.36 4.48 3-1.49 3-4.11c.36-2.2-.78-4.11-3-4.11z"/>
  <path d="M499.82 142.89c-3 0-4.86 1.87-4.86 4.48a4.32 4.32 0 0 0 4.48 4.48 4.63 4.63 0 0 0 4.86-4.48 4.12 4.12 0 0 0-4.48-4.48zm2.62 4.48c0 2.62-.75 4.11-3 4.11s-3.36-2.24-3.36-4.48 1.12-3.74 3.36-3.74 3.37 1.91 3 4.12zM460.21 142.89c-3 0-4.86 1.87-4.86 4.48a4.32 4.32 0 0 0 4.48 4.48 4.63 4.63 0 0 0 4.86-4.48 4.12 4.12 0 0 0-4.48-4.48zm2.62 4.48c0 2.62-.75 4.11-3 4.11s-3.36-2.24-3.36-4.48 1.12-3.74 3.36-3.74 3.37 1.91 3 4.12zM483.01 142.89c-3 0-4.86 1.87-4.86 4.48a4.32 4.32 0 0 0 4.48 4.48 4.63 4.63 0 0 0 4.86-4.48 4.12 4.12 0 0 0-4.48-4.48zm2.62 4.48c0 2.62-.75 4.11-3 4.11s-3.36-2.24-3.36-4.48 1.12-3.74 3.36-3.74 3.37 1.91 2.99 4.12zM514.77 143.26h-2.62v1.91h.37v-1.12c0-.37 0-.37.37-.37h1.87v7.47c0 .37 0 .37-.37.37h-.75v.37h3.74v-.37h-.75a.37.37 0 0 0-.37-.37v-7.47h1.87c.37 0 .37 0 .37.37v1.12h.37v-1.87h-4.11zM474.78 150.36l-4.11-3.74 3.36-3c.37 0 .75-.37 1.12-.37h.37v-.37h-2.24v.37a.37.37 0 0 1-.37.37l-3.36 3.36v-3.74h1.12v-.37h-3.74v.75h1.13v7.47c0 .37 0 .37-.37.37h-.75v.37h3a.37.37 0 0 0-.37-.37v-3.74l4.48 4.11h1.87v-.37h-.37c-.39.03-.39-.35-.77-1.1zM617.53 142.89v.37h.37a.37.37 0 0 0 .37.37v5.23c0 2.24-1.12 2.62-2.62 2.62-1.87 0-2.62-.37-2.62-2.24v-5.61c0-.37 0-.37.37-.37h.75v-.37h-3.74v.37h.75a.37.37 0 0 0 .37.37v5.61c0 2.24 1.12 2.62 4.48 3 2.62 0 3.74-1.12 3.74-3.74v-4.86c0-.37 0-.37.37-.37h.37v-.37h-3zM577.18 150.74a1.3 1.3 0 0 1-.37-.75l-3-7.1h-.37c-.37.75-.75 1.87-1.12 2.62l-2.62 5.23c-.37.37-.37.75-.75.75h-.37v.37h3v-.37h-.37c-.37 0-.75 0-.75-.37s.37-1.12.37-1.49l.37-.75h3.74l.75 1.49a1.16 1.16 0 0 1 .37.75c0 .37 0 .37-.37.37h-.75v.37h3v-.75h-.37a.37.37 0 0 1-.39-.37zm-5.61-2.24l1.87-3.74 1.49 3.74zM595.11 151.49v-6.73c0-.75 0-1.12-.37-1.49h.75v-.37h-2.24l-3.36 7.1-3.36-7.1h-2.24v.75h.77v7.47c0 .37 0 .37-.37.37h-.37v.37h3v-.37h-.37a.37.37 0 0 0-.37-.37v-6.73l3.36 7.47h.37c.37-.37.37-1.12.75-1.49l1.87-4.86a1.37 1.37 0 0 1 .37-1.12v6.73c0 .37 0 .37-.37.37h-.37v.37h3a.37.37 0 0 0-.45-.37zM607.06 150.74a1.3 1.3 0 0 1-.37-.75l-3-7.1h-.75c-.37.75-.75 1.87-1.12 2.62l-2.24 5.23c-.37.37-.37.75-.75.75h-.37v.37h3v-.37h-.4c-.37 0-.75 0-.75-.37s.37-1.12.37-1.49l.37-.75h3.74l.75 1.49a1.16 1.16 0 0 1 .37.75c0 .37 0 .37-.37.37h-.75v.37h3v-.75h-.37a.37.37 0 0 1-.36-.37zm-5.61-2.24l1.87-3.74 1.49 3.74zM527.47 144.76h.37a16.19 16.19 0 0 1 .37-1.87h-6.73v.37h.75a.37.37 0 0 0 .37.37v6.73c0 .37 0 .75-.75.75 0 .37 0 .37-.37.37h6.35c0-.75.37-1.49.37-2.24h-.37c0 .75 0 1.49-.37 1.49h-3.74v-3.36h3v1.12h.34v-3h-.37v1.12h-3v-3.36h1.12a5.54 5.54 0 0 1 2.62.37v1.12zM622.06 142.89v.75h1.12v7.47c0 .37 0 .37-.37.37h-.75v.37h3a.37.37 0 0 0-.37-.37v-8.22h1.12v-.37h-3.75zM535.7 142.89v.75h1.12v7.47c0 .37 0 .37-.37.37h-.75v.37h3a.37.37 0 0 0-.37-.37v-6.73c0-.75.37-1.12 0-1.49h1.12v-.37h-3.74zM561.48 150.74a1.3 1.3 0 0 1-.37-.75l-3-7.1h-.75c-.37.75-.75 1.87-1.12 2.62l-2.24 5.23c-.37.37-.37.75-.75.75h-.37v.37h3v-.37h-.37c-.37 0-.75 0-.75-.37s.37-1.12.37-1.49l.37-.75h3.74l.75 1.49a1.16 1.16 0 0 1 .37.75c0 .37 0 .37-.37.37h-.75v.37h3v-.75h-.37a.37.37 0 0 1-.39-.37zm-5.61-2.24l1.87-3.74 1.49 3.74zM549.9 150.36l-4.11-3.74 3.36-3c.37 0 .75-.37 1.12-.37h.37v-.37h-2.24v.37l-.37.37-3.36 3.36v-3.74h1.12v-.37h-3.73v.75h1.12v7.47c0 .37 0 .37-.37.37h-.75v.37h3a.37.37 0 0 0-.37-.37v-3.74l4.48 4.11h1.89v-1.12h-.37c-.42.03-.42.03-.79-.35zM274.11 150.74a1.3 1.3 0 0 1-.37-.75l-3-7.1h-.75c-.37.75-.75 1.87-1.12 2.62l-2.24 5.23c-.37.37-.37.75-.75.75h-.37v.37h3v-.37h-.37c-.37 0-.75 0-.75-.37s.37-1.12.37-1.49l.37-.75h3.74l.75 1.49a1.16 1.16 0 0 1 .37.75c0 .37 0 .37-.37.37h-.75v.37h3v-.75h-.37a.37.37 0 0 1-.39-.37zm-5.23-2.24l1.87-3.74 1.49 3.74zM247.58 142.89v.75h.37c.75 0 .75 0 .75.37l-1.49 6-1.87-5.61c0-.37-.37-1.12-.37-1.49h-.37c-.37 1.12-.75 1.87-1.12 3l-1.49 3.74-1.12-5.61c-.37-.75 0-.75.37-.75h.37v-.37h-3v.37h.37a.8.8 0 0 1 .75.75l1.49 6.73c0 .37.37.75.37 1.12h.75c0-.37.37-.75.37-1.12l2.24-5.61 1.49 4.11a2.47 2.47 0 0 1 .37 2.24h.75c0-.37.37-.75.37-1.12l1.87-6.73c0-.37 0-.37.37-.37h.37v-.37h-3zM259.54 142.89v.37h.75a.37.37 0 0 0 .37.37v3.36h-5.23v-3.36c0-.37 0-.37.37-.37h.75v-.37h-3.74v.37h.75a.37.37 0 0 0 .37.37v7.47c0 .37 0 .37-.37.37h-.75v.37h3a.37.37 0 0 0-.37-.37v-4.11h5.23v3.74c0 .37 0 .37-.37.37h-.75v.37h3a.37.37 0 0 0-.37-.37v-7.85c0-.37 0-.37.37-.37h.75v-.37h-3.74zM311.06 142.89v.75h.37c.75 0 .75 0 .75.37l-1.49 6-1.87-5.61c0-.37-.37-1.12-.37-1.49h-.37c-.37 1.12-.75 1.87-1.12 3l-1.49 3.74-1.12-5.61c-.37-.75 0-.75.37-.75h.37v-.37h-3v.75h.37a.8.8 0 0 1 .75.75l1.49 6.35c0 .37.37.75.37 1.12h.75c0-.37.37-.75.37-1.12l2.24-5.61 1.49 4.11a2.47 2.47 0 0 1 .37 2.24h.77c0-.37.37-.75.37-1.12l1.87-6.73c0-.37 0-.37.37-.37h.39v-.37h-3zM282.34 147c1.49 0 2.62-.75 2.62-2.24 0-.75-.75-1.87-2.62-1.87h-4.48v.37h.37a.37.37 0 0 0 .37.37v7.47c0 .37 0 .37-.37.37h-.75v.37h3a.37.37 0 0 0-.37-.37v-7.85a1.37 1.37 0 0 0 1.12-.37 1.74 1.74 0 0 1 1.83 1.92 1.71 1.71 0 0 1-1.49 1.87 1.37 1.37 0 0 1-1.12.37c.37 0 .37.37.75.75l3 3c0 .37.37.37.37.75h1.49v-.75c-.37 0-.37 0-.75-.37zM293.92 144.76h.37a16.19 16.19 0 0 1 .37-1.87h-6.73v.37h.75a.37.37 0 0 0 .37.37v6.73c0 .37 0 .75-.75.75 0 .37 0 .37-.37.37h6.35c0-.75.37-1.49.37-2.24h-.37a3.86 3.86 0 0 1-.37 1.49h-3.74v-3.36h3v1.12h.37v-3h-.37v1.12h-3v-3.36h1.12a5.54 5.54 0 0 1 2.62.37v1.12zM601.09 140.65h4.86v1.12h-4.86zM450.12 142.89h-4.48v.75h.75l.37.37v7.1c0 .37 0 .37-.37.37h-.75v.37h3a.37.37 0 0 0-.37-.37v-7.85a2.82 2.82 0 0 0 1.49-.37c1.12 0 1.87.37 1.87 1.87a1.77 1.77 0 0 1-1.87 1.87h-.75v.37h.75a2.89 2.89 0 0 0 3-2.62c-.02-1.49-1.52-1.86-2.64-1.86zM319.33 140.65h4.86v1.12h-4.86zM230.77 151.11h-3.71v-3.36h3v-1.87h-.37V147h-3v-3.36h3.74v1.12h.37a16.19 16.19 0 0 1 .37-1.87h-6.73v.37h.75a.37.37 0 0 0 .37.37v6.73c0 .37 0 .75-.37.75 0 .37 0 .37-.37.37h-.37v.37h6.73c0-.75.37-1.49.37-2.24h-.37a3.86 3.86 0 0 1-.41 1.5zM217.31 143.26h-2.62v1.91h.75v-1.12c0-.37 0-.37.37-.37h1.87v7.47c0 .37 0 .37-.37.37h-.75v.37h3.74v-.37h-.75a.37.37 0 0 0-.37-.37v-7.47h1.88c.37 0 .37 0 .37.37v1.12h.37v-1.87h-4.48zM436.29 140.65h4.86v1.12h-4.86zM412.75 143.26h-2.62v1.91h.37v-1.12c0-.37 0-.37.37-.37h1.87v6.73c0 .37 0 .75.37.75 0 .37 0 .37-.37.37h-.75v.37h3.74v-.37h-.75a.37.37 0 0 0-.37-.37v-7.47h1.87c.37 0 .37 0 .37.37v1.11h.37v-1.87h-4.48zM385.06 150.74a1.3 1.3 0 0 1-.37-.75l-3-7.1h-.75c-.37.75-.75 1.87-1.12 2.62l-2.24 5.23c-.37.37-.37.75-.75.75h-.37v.37h3v-.37h-.37c-.37 0-.75 0-.75-.37s.37-1.12.37-1.49l.37-.75h3.74l.75 1.49a1.16 1.16 0 0 1 .37.75c0 .37 0 .37-.37.37h-.75v.37h3v-.75h-.37a.37.37 0 0 1-.39-.37zm-5.61-2.24l1.87-3.74 1.49 3.74zM397.8 142.89c-3 0-4.86 1.87-4.86 4.48a4.12 4.12 0 0 0 4.48 4.48 4.63 4.63 0 0 0 4.86-4.48 4.12 4.12 0 0 0-4.48-4.48zm2.62 4.48c0 2.62-.75 4.11-3 4.11s-3.36-2.24-3.36-4.48 1.12-3.74 3.36-3.74 3.37 1.91 3 4.12zM425.46 144.76h.37a16.19 16.19 0 0 1 .37-1.87h-6.73v.37h.75a.37.37 0 0 0 .37.37v6.73c0 .37 0 .75-.75.75 0 .37 0 .37-.37.37h6.35c0-.75.37-1.49.37-2.24h-.37c0 .75 0 1.49-.37 1.49h-3.74v-3.36h3v1.12h.35v-3h-.37v1.12h-3v-3.36h1.12a5.54 5.54 0 0 1 2.62.37v1.12zM441.15 142.89v.37h.37a.37.37 0 0 0 .37.37v5.23c0 2.24-1.12 2.62-2.62 2.62-1.87 0-2.62-.37-2.62-2.24v-5.61c0-.37 0-.37.37-.37h.75v-.37h-3.71v.37h.75a.37.37 0 0 0 .37.37v5.61c0 2.24 1.12 2.62 4.48 3 2.62 0 3.74-1.12 3.74-3.74v-4.86c0-.37 0-.37.37-.37h.37v-.37h-3zM349.6 150.74a1.3 1.3 0 0 1-.37-.75l-3-7.1h-.75c-.37.75-.75 1.87-1.12 2.62l-2.24 5.23c-.37.37-.37.75-.75.75H341v.37h3v-.37h-.37c-.37 0-.75 0-.75-.37s.37-1.12.37-1.49l.37-.75h3.74l.75 1.49a1.16 1.16 0 0 1 .37.75c0 .37 0 .37-.37.37h-.75v.37h3v-.75h-.37a.37.37 0 0 1-.39-.37zm-5.61-2.24l1.87-3.74 1.49 3.74zM336.52 142.89v.37h.75v7.1l-6-7.47h-2.21v.75h.75v6.73c0 .37 0 .75-.75.75 0 .37 0 .37-.37.37h-.37v.37h3v-.37h-.37a.37.37 0 0 0-.37-.37v-6.73l6 7.47h2.24v-8.59h.75v-.37h-3zM325.31 150.74a1.3 1.3 0 0 1-.37-.75l-3-7.1h-.75c-.37.75-.75 1.87-1.12 2.62l-2.24 5.23c-.37.37-.37.75-.75.75h-.37v.37h3v-.37h-.37c-.37 0-.75 0-.75-.37s.37-1.12.37-1.49l.37-.75h3.73l.75 1.49a1.16 1.16 0 0 1 .37.75c0 .37 0 .37-.37.37h-.75v.37h3v-.75h-.37a.37.37 0 0 1-.38-.37zm-5.61-2.24l1.87-3.74 1.49 3.74zM370.9 148.5v.37h1.16c.37 0 .37 0 .37.37v1.12c0 .37 0 .37-.37.75a4.53 4.53 0 0 1-1.87.37c-2.62 0-4.11-1.87-4.11-4.48a3.53 3.53 0 0 1 3.74-3.74 16.19 16.19 0 0 1 1.87.37c.75.37 1.12.37 1.12 1.12v.42h.37c0-.75.37-1.12.37-1.87a20.12 20.12 0 0 0-3-.37c-3 0-5.23 1.87-5.23 4.48 0 3 2.24 4.48 5.23 4.48a9.29 9.29 0 0 0 3-.37v-2.65h.37v-.37h-3zM360.81 142.89v.37h.75v7.1l-6-7.47h-2.24v.75h.74v6.73c0 .37 0 .75-1.12.75 0 .37 0 .37-.37.37h-.37v.37h3v-.37h-.37a.37.37 0 0 0-.37-.37v-6.73l6 7.47h2.6v-8.59h.75v-.37h-3z" fill="#f91010"/>
</svg>