<svg
  xmlns="http://www.w3.org/2000/svg" viewBox="0 0 734.55 935.68">
  <defs>
    <clipPath id="a" transform="translate(-115.48 -48.86)">
      <path fill="none" d="M-80.24-110.49h1219.68v1219.68H-80.24z"/>
    </clipPath>
    <clipPath id="b" transform="translate(-115.48 -48.86)">
      <path d="M162.77 102.39a1.22 1.22 0 0 0-1.22 1.22V919a1.22 1.22 0 0 0 1.22 1.22h602.16a32.68 32.68 0 0 0 32.68-32.68V135.07a32.68 32.68 0 0 0-32.68-32.68z" fill="none"/>
    </clipPath>
    <clipPath id="c" transform="translate(-115.48 -48.86)">
      <path fill="none" d="M-79.77 110.49h1000v1000h-1000z"/>
    </clipPath>
    <clipPath id="d" transform="translate(-115.48 -48.86)">
      <path d="M119.48 285a1 1 0 0 0-1 1v668.52a1 1 0 0 0 1 1h493.7A26.79 26.79 0 0 0 640 928.73v-616.9A26.79 26.79 0 0 0 613.18 285z" fill="none"/>
    </clipPath>
    <linearGradient id="e" x1="-.15" y1="-2.13" x2=".85" y2="-2.13" gradientTransform="matrix(521.49 0 0 -521.49 82.77 -539.07)" gradientUnits="userSpaceOnUse">
      <stop offset="0" stop-color="#154c00"/>
      <stop offset="1" stop-color="#175400"/>
    </linearGradient>
  </defs>
  <g clip-path="url(#a)" data-name="Layer 4 copy">
    <g clip-path="url(#a)">
      <path d="M693.33 821.44h-592.4a6.1 6.1 0 0 1-6.1-6.1V9.76a6.1 6.1 0 0 1 6.1-6.1h592.4a37.55 37.55 0 0 1 37.55 37.55v742.68a37.55 37.55 0 0 1-37.55 37.55" fill="#e29e07"/>
      <path d="M693.33 821.44h-592.4a6.1 6.1 0 0 1-6.1-6.1V9.76a6.1 6.1 0 0 1 6.1-6.1h592.4a37.55 37.55 0 0 1 37.55 37.55v742.68a37.55 37.55 0 0 1-37.55 37.55z" fill="none" stroke="#000" stroke-miterlimit="10" stroke-width="7.31807971"/>
      <path d="M46.42 53.14L92.74 5.76a1.22 1.22 0 0 1 2.09.85v814.34a1.22 1.22 0 0 1-.35.85l-46.32 47.34a1.22 1.22 0 0 1-2.09-.85V54.03a1.22 1.22 0 0 1 .35-.85" fill="#e29e07"/>
      <path d="M46.42 53.14L92.74 5.76a1.22 1.22 0 0 1 2.09.85v814.34a1.22 1.22 0 0 1-.35.85l-46.32 47.34a1.22 1.22 0 0 1-2.09-.85V54.03a1.22 1.22 0 0 1 .35-.89z" fill="none" stroke="#000" stroke-miterlimit="10" stroke-width="7.31807971"/>
      <path d="M666.92 832.3L70.45 821.44v-771L95.07 24.3h582.15a33.15 33.15 0 0 1 33.15 33.15v719.2c0 21.4-22 55.64-43.44 55.64" fill="#fff"/>
      <path d="M666.92 832.3L70.45 821.44v-771L95.07 24.3h582.15a33.15 33.15 0 0 1 33.15 33.15v719.2c-.01 21.42-22.04 55.65-43.45 55.65z" fill="none" stroke="#000" stroke-miterlimit="10" stroke-width="4.87871981"/>
    </g>
    <g clip-path="url(#b)">
      <path fill="#ff9700" d="M46.08 53.53h636.05v817.78H46.08z"/>
    </g>
    <g clip-path="url(#a)">
      <path d="M649.45 871.31H47.29a1.22 1.22 0 0 1-1.22-1.22V54.75a1.22 1.22 0 0 1 1.22-1.22h602.16a32.67 32.67 0 0 1 32.68 32.68v752.43a32.67 32.67 0 0 1-32.68 32.67z" fill="none" stroke="#000" stroke-miterlimit="10" stroke-width="7.31807971"/>
    </g>
    <text transform="translate(94.83 772.36)" font-size="279.30670166" fill="#fff" font-family="HelveticaNeue,Helvetica Neue">Aa</text>
    <g clip-path="url(#a)" fill="none" stroke="#000" stroke-miterlimit="10" stroke-width="3.65903986">
      <path d="M200.13 572.93l77.93 199.42h-29.33l-21.78-60.05h-84.36l-22.34 60.05h-27.1l77.65-199.42zm18.43 117l-33.24-93h-.56l-33.8 93zM383.07 721.96a26.6 26.6 0 0 1-2.51 10.7 31.87 31.87 0 0 1-7.82 10.56 42.35 42.35 0 0 1-13.69 8.06q-8.38 3.19-20.11 3.2a49 49 0 0 1-10.61-1.11 25.87 25.87 0 0 1-8.8-3.61 19.67 19.67 0 0 1-6.14-6.53 19.12 19.12 0 0 1-2.38-9.87q0-8.89 4.05-14a26.32 26.32 0 0 1 10.46-7.96 59.35 59.35 0 0 1 14.52-4q8.1-1.25 16.06-2.22t15.22-2.5a29.64 29.64 0 0 0 11.73-4.87zm38.55 31.4a28.73 28.73 0 0 1-7.26 1.12q-5.59 0-6.56-3.9a55.19 55.19 0 0 1-1-12.26v-74.18q0-12.54-4.75-20.34a33.48 33.48 0 0 0-12.53-12.09 50.81 50.81 0 0 0-17.46-5.71 135.26 135.26 0 0 0-19.41-1.4 101 101 0 0 0-23 2.51 56.29 56.29 0 0 0-19.13 8.24 42.37 42.37 0 0 0-13.41 14.94q-5 9.22-5.59 22.62h23.74q.84-15.92 10.89-21.65t25.14-5.73a78.06 78.06 0 0 1 11.31.84 30.68 30.68 0 0 1 10.33 3.35 20.12 20.12 0 0 1 7.54 7.26q2.93 4.75 2.93 12.57 0 6.7-3.91 10.19a25.79 25.79 0 0 1-10.61 5.31 102.88 102.88 0 0 1-15.5 2.79q-8.8 1-18.57 2.93-9.22 1.68-18 4.19a50.59 50.59 0 0 0-15.64 7.4 36.54 36.54 0 0 0-11 12.71q-4.19 7.82-4.19 20.11 0 10.89 3.77 18.57a33.45 33.45 0 0 0 10.19 12.43 43.1 43.1 0 0 0 15.22 7 78.62 78.62 0 0 0 46.64-2.93 56.8 56.8 0 0 0 22.76-16.9q0 11.73 5.45 16.9t14.66 5.17q10.89 0 17-3.63z"/>
    </g>
  </g>
  <g clip-path="url(#c)" data-name="Layer 4">
    <g clip-path="url(#c)">
      <path d="M533.67 865.77H47.97a5 5 0 0 1-5-5V200.29a5 5 0 0 1 5-5h485.7a30.79 30.79 0 0 1 30.79 30.79v608.9a30.79 30.79 0 0 1-30.79 30.79" fill="#030"/>
      <path d="M533.67 865.77H47.97a5 5 0 0 1-5-5V200.29a5 5 0 0 1 5-5h485.7a30.79 30.79 0 0 1 30.79 30.79v608.9a30.79 30.79 0 0 1-30.79 30.79z" fill="none" stroke="#000" stroke-miterlimit="10" stroke-width="6"/>
      <path d="M3.28 235.88l38-38.84a1 1 0 0 1 1.71.7v667.63a1 1 0 0 1-.28.7l-38 38.84a1 1 0 0 1-1.71-.7V236.58a1 1 0 0 1 .29-.7" fill="#030"/>
      <path d="M3.28 235.88l38-38.84a1 1 0 0 1 1.71.7v667.63a1 1 0 0 1-.28.7l-38 38.84a1 1 0 0 1-1.71-.7V236.58a1 1 0 0 1 .28-.7z" fill="none" stroke="#000" stroke-miterlimit="10" stroke-width="6"/>
      <path d="M512.02 874.68l-489-8.9V233.66l20.18-21.43h477.3a27.18 27.18 0 0 1 27.18 27.18v589.65c0 17.55-18.07 45.62-35.61 45.62" fill="#fff"/>
      <path d="M512.02 874.68l-489-8.9V233.66l20.18-21.43h477.3a27.18 27.18 0 0 1 27.18 27.18v589.65c-.04 17.55-18.11 45.62-35.66 45.62z" fill="none" stroke="#000" stroke-miterlimit="10" stroke-width="4"/>
    </g>
    <g clip-path="url(#d)">
      <path fill="url(#e)" d="M3 236.17h521.49v670.49H3z"/>
    </g>
    <g clip-path="url(#c)">
      <path d="M497.7 906.66H4a1 1 0 0 1-1-1V237.14a1 1 0 0 1 1-1h493.7a26.79 26.79 0 0 1 26.82 26.83v616.9a26.79 26.79 0 0 1-26.82 26.79z" fill="none" stroke="#000" stroke-miterlimit="10" stroke-width="6"/>
    </g>
    <text transform="translate(42.97 825.53)" font-size="229" fill="#fff" font-family="HelveticaNeue,Helvetica Neue">Aa</text>
    <g clip-path="url(#c)" fill="none" stroke="#000" stroke-miterlimit="10" stroke-width="3">
      <path d="M129.3 662.02l63.89 163.51h-24l-17.86-49.24h-69.2l-18.32 49.24H41.6l63.66-163.51zm15.11 96l-27.25-76.26h-.46l-27.71 76.26zM279.3 784.21a21.81 21.81 0 0 1-2.06 8.77 26.13 26.13 0 0 1-6.41 8.66 34.72 34.72 0 0 1-11.22 6.61 46.34 46.34 0 0 1-16.49 2.62 40.18 40.18 0 0 1-8.7-.91 21.21 21.21 0 0 1-7.21-3 16.13 16.13 0 0 1-5-5.36 15.68 15.68 0 0 1-1.95-8.09q0-7.29 3.32-11.51a21.58 21.58 0 0 1 8.59-6.49 48.66 48.66 0 0 1 11.91-3.3q6.64-1 13.17-1.82t12.48-2.05a24.3 24.3 0 0 0 9.62-4zm31.6 25.74a23.55 23.55 0 0 1-6 .92q-4.58 0-5.38-3.2a45.25 45.25 0 0 1-.8-10.05v-60.79q0-10.28-3.89-16.68a27.45 27.45 0 0 0-10.3-9.94 41.66 41.66 0 0 0-14.31-4.68 110.9 110.9 0 0 0-15.92-1.15 82.82 82.82 0 0 0-18.89 2.06 46.16 46.16 0 0 0-15.69 6.76 34.74 34.74 0 0 0-11 12.25q-4.12 7.56-4.58 18.55h19.46q.69-13.05 8.93-17.75t20.61-4.69a64 64 0 0 1 9.27.69 25.15 25.15 0 0 1 8.47 2.75 16.49 16.49 0 0 1 6.18 6q2.4 3.9 2.4 10.3 0 5.5-3.21 8.36a21.15 21.15 0 0 1-8.7 4.35 84.35 84.35 0 0 1-12.71 2.29q-7.21.81-15.23 2.4-7.56 1.37-14.77 3.43a41.48 41.48 0 0 0-12.75 6.01 30 30 0 0 0-9 10.42q-3.44 6.41-3.43 16.49a34.27 34.27 0 0 0 3.09 15.23 27.43 27.43 0 0 0 8.36 10.19 35.34 35.34 0 0 0 12.41 5.75 64.46 64.46 0 0 0 38.24-2.4 46.57 46.57 0 0 0 18.66-13.85q0 9.62 4.47 13.85t12 4.24q8.93 0 14-3z"/>
    </g>
  </g>
</svg>