<svg xmlns="http://www.w3.org/2000/svg" xmlns:xlink="http://www.w3.org/1999/xlink" viewBox="0 0 978.47 978.47"><defs><linearGradient id="linear-gradient" x1="489.23" y1="965.47" x2="489.23" y2="13" gradientUnits="userSpaceOnUse"><stop offset="0" stop-color="#4067f4"/><stop offset="1" stop-color="#024bb5"/></linearGradient><radialGradient id="radial-gradient" cx="489.23" cy="489.23" r="486.23" gradientUnits="userSpaceOnUse"><stop offset="0" stop-color="#fff"/><stop offset="0.54" stop-color="#fdfdfd"/><stop offset="0.74" stop-color="#f6f6f6"/><stop offset="0.88" stop-color="#ebebeb"/><stop offset="0.99" stop-color="#dadada"/><stop offset="1" stop-color="#d8d8d8"/></radialGradient></defs><title>electron</title><g id="Layer_2" data-name="Layer 2"><rect x="13" y="13" width="952.47" height="952.47" rx="254.17" ry="254.17" style="fill:url(#linear-gradient)"/><rect x="13" y="13" width="952.47" height="952.47" rx="254.17" ry="254.17" style="fill:none;stroke:#fff;stroke-miterlimit:10;stroke-width:26px"/><rect x="13" y="13" width="952.47" height="952.47" rx="254.17" ry="254.17" style="fill:none;stroke-miterlimit:10;stroke-width:20px;stroke:url(#radial-gradient)"/></g><g id="Layer_1" data-name="Layer 1"><path d="M423.72,339.88c-73.4-13.37-131.44.62-154.57,40.69-17.26,29.9-12.33,69.53,12,111.91A7.53,7.53,0,0,0,294.18,485c-21.88-38.17-26.14-72.38-12-96.89,19.22-33.28,71-45.76,138.84-33.4a7.53,7.53,0,1,0,2.7-14.81ZM319.29,544c29.68,32.62,68.24,63.21,112.22,88.6C538,694,651.34,710.48,707.2,672.38a7.53,7.53,0,1,0-8.48-12.44C648.72,694,541,678.43,439,619.53c-42.66-24.63-80-54.25-108.61-85.69A7.53,7.53,0,0,0,319.29,544Z" transform="translate(-10.77 -9.33)" style="fill:#fff"/><path d="M689.38,534.81c48.06-56.78,64.84-113.89,41.76-153.87-17-29.42-52.89-45-100.61-45.57a7.53,7.53,0,1,0-.2,15.05c42.92.56,73.85,13.94,87.77,38,19.17,33.21,4.21,84.14-40.21,136.61a7.53,7.53,0,0,0,11.49,9.73ZM565.86,342.38c-43.46,9.31-89.71,27.52-134.14,53.16C321.81,459,250.1,552.59,260.06,620.44A7.53,7.53,0,1,0,275,618.25C266.11,558,334.08,469.3,439.25,408.58,482.35,383.7,527.14,366.08,569,357.1a7.53,7.53,0,0,0-3.15-14.72Z" transform="translate(-10.77 -9.33)" style="fill:#fff"/><path d="M387.79,667.48C412.92,737.65,454,780.85,500.26,780.85c33.72,0,64.91-23,89.23-63.45a7.53,7.53,0,0,0-12.9-7.76C554.73,746,527.88,765.8,500.26,765.8c-38.4,0-75.07-38.53-98.3-103.4a7.53,7.53,0,0,0-14.17,5.08Zm229.54-13.73c13-41.57,20-89.53,20-139.5,0-124.7-43.64-232.2-105.81-259.8a7.53,7.53,0,0,0-6.11,13.76c55.44,24.62,96.87,126.64,96.87,246,0,48.48-6.77,94.93-19.31,135a7.53,7.53,0,1,0,14.37,4.5Z" transform="translate(-10.77 -9.33)" style="fill:#fff"/><path d="M759.09,646.38a36,36,0,1,0-36,36,36,36,0,0,0,36-36Zm-15.05,0a21,21,0,1,1-21-21,21,21,0,0,1,21,21Z" transform="translate(-10.77 -9.33)" style="fill:#fff"/><path d="M276.93,682.4a36,36,0,1,0-36-36,36,36,0,0,0,36,36Zm0-15.05a21,21,0,1,1,21-21,21,21,0,0,1-21,21Z" transform="translate(-10.77 -9.33)" style="fill:#fff"/><path d="M500.26,291.2a36,36,0,1,0-36-36,36,36,0,0,0,36,36Zm0-15.05a21,21,0,1,1,21-21,21,21,0,0,1-21,21Z" transform="translate(-10.77 -9.33)" style="fill:#fff"/><path d="M505.76,539.73a26.06,26.06,0,1,1,20-31,26.07,26.07,0,0,1-20,31Z" transform="translate(-10.77 -9.33)" style="fill:#fff"/></g></svg>