<svg xmlns="http://www.w3.org/2000/svg" xmlns:xlink="http://www.w3.org/1999/xlink" viewBox="0 0 978.47 978.47"><defs><linearGradient id="linear-gradient" x1="489.23" y1="965.47" x2="489.23" y2="13" gradientUnits="userSpaceOnUse"><stop offset="0" stop-color="#ff7300"/><stop offset="1" stop-color="#ff9100"/></linearGradient><radialGradient id="radial-gradient" cx="489.23" cy="489.23" r="486.23" gradientUnits="userSpaceOnUse"><stop offset="0" stop-color="#fff"/><stop offset="0.54" stop-color="#fdfdfd"/><stop offset="0.74" stop-color="#f6f6f6"/><stop offset="0.88" stop-color="#ebebeb"/><stop offset="0.99" stop-color="#dadada"/><stop offset="1" stop-color="#d8d8d8"/></radialGradient></defs><title>htmlcss</title><g id="Layer_2" data-name="Layer 2"><rect x="13" y="13" width="952.47" height="952.47" rx="254.17" ry="254.17" style="fill:url(#linear-gradient)"/><rect x="13" y="13" width="952.47" height="952.47" rx="254.17" ry="254.17" style="fill:none;stroke:#fff;stroke-miterlimit:10;stroke-width:26px"/><rect x="13" y="13" width="952.47" height="952.47" rx="254.17" ry="254.17" style="fill:none;stroke-miterlimit:10;stroke-width:20px;stroke:url(#radial-gradient)"/></g><g id="Layer_1" data-name="Layer 1"><path d="M487.93,834.36v-70.6l-.31.09-139.37-38.7-9.53-106.82H407l4.84,54.27L487.63,693h.06l.24-.06V584.32H335.68L319,396.83l-1.63-18.26H487.93v-68h1.59V265.18H216.2l49.46,554.74L487.6,881.52l1.92-.54V833.92l-1.59.43Z" transform="translate(-10.77 -9.33)" style="fill:#fff"/><path d="M487.69,446.61h-96l6.22,69.67h90V446.61h-.24Zm.24-136.09h1.59v68h-1.59Zm1.59,273.79h-1.59V693l1.59-.43V584.32Zm-1.59,179.43v70.61l1.59-.43V763.31l-1.59.43Zm0-317.13h1.59v69.67h-1.59Z" transform="translate(-10.77 -9.33)" style="fill:#fff"/><g style="opacity:0.7599999904632568"><path d="M508.57,516.28V446.61h-2.05v69.67ZM508.33,693l.24-.06V584.32h-2.05V692.58l1.75.46h.06Z" transform="translate(-10.77 -9.33)" style="fill:#fff"/><path d="M730.79,819.83l49.5-554.65H506.52V378.56h2.05v-68H730.72l-42.31,474L508.57,834.36v-70.6l-.31.09-1.74-.49V881l1.71.48Z" transform="translate(-10.77 -9.33)" style="fill:#fff"/><path d="M604.21,446.61H508.57v69.67H598Z" transform="translate(-10.77 -9.33)" style="fill:#fff"/><path d="M666.47,516.28l-1.65,18.26-16,179.12-1,11.49L508.57,763.75v70.61l179.83-49.85,42.31-474H508.57v68H678.76Z" transform="translate(-10.77 -9.33)" style="fill:#fff"/><path d="M592.12,584.32H508.57V693l75.65-20.42,7.9-88.23Zm-85.59-68h1.81v68h-1.81Zm0-137.72h1.81v68h-1.81Zm2.05,385.2h0l-.24.06V693h-.06l-1.75-.46v70.78l1.74.49.31-.09Z" transform="translate(-10.77 -9.33)" style="fill:#fff"/></g><path d="M616.25,184.06h49.7v20.8H637v20.78h28.92v20.78h-49.7Zm59.65,0h49.7v18.08H696.68v3.61H725.6V247.3H675.9v-19h28.92v-3.61H675.9Zm59.65,0h49.7v18.08H756.32v3.61h28.92V247.3h-49.7v-19h28.92v-3.61H735.54Z" transform="translate(-10.77 -9.33)" style="fill:#fff"/><path d="M216.6,181.38h20.86V202h19.07v-20.6h20.86v62.4H256.53v-20.9H237.46v20.9H216.6Zm88.22,20.69H286.45V181.38H344v20.69H325.67v41.71H304.82Zm48.36-20.69h21.74L388.3,203.3l13.36-21.92h21.75v62.4H402.65V212.84L388.3,235h-.36l-14.43-22.19v30.94H353.18Zm80.62,0h20.86v41.77H484v20.63H433.79Z" transform="translate(-10.77 -9.33)" style="fill:#fff"/></g></svg>