<svg xmlns="http://www.w3.org/2000/svg" xmlns:xlink="http://www.w3.org/1999/xlink" viewBox="0 0 978.47 978.47"><defs><linearGradient id="linear-gradient" x1="13" y1="489.23" x2="965.47" y2="489.23" gradientUnits="userSpaceOnUse"><stop offset="0" stop-color="#efef11"/><stop offset="1" stop-color="#faff39"/></linearGradient><radialGradient id="radial-gradient" cx="489.23" cy="489.23" r="486.23" gradientUnits="userSpaceOnUse"><stop offset="0" stop-color="#fff"/><stop offset="0.54" stop-color="#fdfdfd"/><stop offset="0.74" stop-color="#f6f6f6"/><stop offset="0.88" stop-color="#ebebeb"/><stop offset="0.99" stop-color="#dadada"/><stop offset="1" stop-color="#d8d8d8"/></radialGradient></defs><title>js</title><g id="Layer_2" data-name="Layer 2"><rect x="13" y="13" width="952.47" height="952.47" rx="254.17" ry="254.17" style="fill:url(#linear-gradient)"/><rect x="13" y="13" width="952.47" height="952.47" rx="254.17" ry="254.17" style="fill:none;stroke:#fff;stroke-miterlimit:10;stroke-width:26px"/><rect x="13" y="13" width="952.47" height="952.47" rx="254.17" ry="254.17" style="fill:none;stroke-miterlimit:10;stroke-width:20px;stroke:url(#radial-gradient)"/></g><g id="Layer_1" data-name="Layer 1"><path d="M712.13,183.56H280.63a99.25,99.25,0,0,0-99.25,99.25v431.5a99.25,99.25,0,0,0,99.25,99.25h431.5a99.25,99.25,0,0,0,99.25-99.25V282.82A99.25,99.25,0,0,0,712.13,183.56ZM524.47,674.93c0,61.3-35.94,89.2-88.4,89.2-47.4,0-74.85-24.53-88.81-54.08l48.19-29.17c9.3,16.5,17.76,30.45,38.1,30.45,19.45,0,31.72-7.61,31.72-37.2V472.83h59.2Zm139.88,89.31c-55,0-90.5-26.2-107.88-60.54l48.11-28c12.69,20.72,29.2,36,58.4,36,24.53,0,40.2-12.26,40.2-29.2,0-20.3-16.1-27.49-43.1-39.3l-14.8-6.35c-42.72-18.2-71.1-41-71.1-89.2,0-44.4,33.83-78.2,86.7-78.2,37.64,0,64.7,13.1,84.2,47.4L699,546.45c-10.15-18.2-21.1-25.37-38.1-25.37-17.34,0-28.33,11-28.33,25.37,0,17.76,11,25,36.4,36l14.8,6.34c50.3,21.57,78.7,43.56,78.7,93C762.45,735,720.58,764.24,664.35,764.24Z" transform="translate(-10.77 -9.33)" style="fill:#fff"/></g></svg>