<svg id="Layer_2" data-name="Layer 2" xmlns="http://www.w3.org/2000/svg" xmlns:xlink="http://www.w3.org/1999/xlink" viewBox="0 0 972.47 972.47"><defs><linearGradient id="linear-gradient" x1="486.23" y1="962.47" x2="486.23" y2="10" gradientUnits="userSpaceOnUse"><stop offset="0" stop-color="#499d4a"/><stop offset="1" stop-color="#076807"/></linearGradient><radialGradient id="radial-gradient" cx="486.23" cy="486.23" r="486.23" gradientUnits="userSpaceOnUse"><stop offset="0" stop-color="#fff"/><stop offset="0.54" stop-color="#fdfdfd"/><stop offset="0.74" stop-color="#f6f6f6"/><stop offset="0.88" stop-color="#ebebeb"/><stop offset="0.99" stop-color="#dadada"/><stop offset="1" stop-color="#d8d8d8"/></radialGradient></defs><title>mongo</title><rect x="10" y="10" width="952.47" height="952.47" rx="254.17" ry="254.17" style="fill:url(#linear-gradient)"/><rect x="10" y="10" width="952.47" height="952.47" rx="254.17" ry="254.17" style="fill:none;stroke-miterlimit:10;stroke-width:20px;stroke:url(#radial-gradient)"/><path d="M882.34,468.29c-.79.16-1.59,1.91-1.59,2.86-.16,6.36-.32,23.21-.32,34.65a1.18,1.18,0,0,0,1,1c2.38.16,8.11.32,13,.32,6.83,0,10.81-1,13-1.91,5.72-2.86,8.42-9.06,8.42-15.9,0-15.42-10.81-21.3-26.86-21.3a25.5,25.5,0,0,0-6.68.32Zm41,71.05c0-15.74-11.6-24.48-32.59-24.48-1,0-7.63-.16-9.22.16-.48.16-1.11.48-1.11,1,0,11.28-.16,29.25.32,36.24.32,3,2.54,7.31,5.25,8.58,2.86,1.59,9.38,1.91,13.83,1.91,12.56,0,23.53-7,23.53-23.37Zm-73.44-79.8c1.59,0,6.36.48,18.6.48,11.6,0,20.82-.32,32.11-.32,13.83,0,32.9,4.93,32.9,25.59,0,10.17-7.15,18.28-16.53,22.25-.48.16-.48.48,0,.63,13.35,3.34,25.12,11.6,25.12,27.18,0,15.26-9.54,25-23.37,31-8.42,3.66-18.91,4.93-29.57,4.93-8.11,0-29.88-1-42-.63-1.27-.48,1.11-6.2,2.22-7.15a29.67,29.67,0,0,0,8.11-1.27c4.29-1.11,4.77-2.38,5.4-8.9.32-5.56.32-25.28.32-39.26,0-19.23.16-32.27,0-38.63-.16-4.93-1.91-6.52-5.4-7.47-2.7-.48-7.15-1.11-10.81-1.59-.8-.8,1.91-6.2,2.86-6.83Zm-91.72,98.87c3.82,3,11.29,4.29,18,4.29,8.58,0,17.17-1.59,25.43-9.06,8.42-7.63,14.31-19.39,14.31-38.15,0-18-6.83-32.59-20.82-41.17-7.95-4.93-18.12-7-29.88-7-3.5,0-6.83.16-8.9,1.11A4.67,4.67,0,0,0,754.7,471c-.32,3.18-.32,27.66-.32,42,0,14.78,0,35.45.32,37.83,0,2.39,1.11,6,3.5,7.63Zm-36.08-98.87c3,0,14.62.48,20.19.48,10,0,17.17-.48,36.08-.48,15.9,0,29.25,4.29,38.79,12.4,11.6,10,17.65,23.84,17.65,40.69,0,24-11,37.83-21.94,45.78-11,8.11-25.27,12.87-45.62,12.87-10.81,0-29.41-.32-44.83-.48h-.16c-.79-1.43,1.27-7,2.54-7.15,4.13-.48,5.25-.64,7.31-1.43,3.34-1.27,4-3,4.45-8.9.48-11,.32-24.16.32-39.1,0-10.65.16-31.47-.16-38.15-.48-5.56-2.86-7-7.63-7.95-2.38-.48-5.56-1.11-10-1.59-.64-1.11,2.22-6,3-7Z" transform="translate(-13.77 -12.33)" style="fill:#8e714e"/><path d="M529.77,564.62a32,32,0,0,1-10.33-2.7,4.84,4.84,0,0,1-1.27-2.54c-.32-5.56-.32-21.46-.32-32.11,0-8.58-1.43-16.06-5.09-21.3a21.7,21.7,0,0,0-18.44-9.54c-7,0-16.37,4.77-24.16,11.44-.16.16-1.43,1.27-1.27-.48,0-1.75.32-5.25.48-7.63a4.12,4.12,0,0,0-1.11-3.34c-5.09,2.54-19.39,5.88-24.64,6.36-3.81.8-4.77,4.45-.79,5.72H443a35.27,35.27,0,0,1,9.38,4.13c1.59,1.27,1.43,3,1.43,4.45.16,11.92.16,30.2-.32,40.22-.16,4-1.27,5.4-4.13,6l.32-.16a62.76,62.76,0,0,1-6.68,1.27c-1,1-1,6,0,7.15,1.75,0,11-.48,18.6-.48,10.49,0,15.9.48,18.6.48,1.11-1.27,1.43-6,.8-7.15a29.43,29.43,0,0,1-7.31-1.11c-2.86-.64-3.66-2.07-3.82-5.4-.32-8.43-.32-26.23-.32-38.31,0-3.34,1-4.93,1.91-5.88a24.05,24.05,0,0,1,14.78-5.4,16.43,16.43,0,0,1,11,3.66c3.5,2.86,4.61,7,5.09,10,.79,6.83.48,20.35.48,32.11,0,6.36-.48,7.95-2.86,8.74a30.25,30.25,0,0,1-7.31,1.43c-1.11,1.11-.79,6,0,7.16,4.61,0,10-.48,18-.48,9.85,0,16.21.48,18.76.48.79-1,1.11-5.56.48-6.84Zm44-60.72c-8.42,0-13.67,6.52-13.67,16.69,0,10.33,4.61,22.25,17.64,22.25,2.23,0,6.36-1,8.26-3.18,3-2.86,5.09-8.58,5.09-14.62,0-13.19-6.52-21.14-17.33-21.14Zm-1.11,70.26a13.66,13.66,0,0,0-6.83,1.75c-6.68,4.29-9.7,8.42-9.7,13.35a14.06,14.06,0,0,0,5.56,11.44c4.61,4,11,5.88,19.07,5.88,16.21,0,23.37-8.74,23.37-17.32,0-6-3-10-9.22-12.24-4.45-1.91-12.56-2.86-22.25-2.86Zm1.11,41.33c-9.7,0-16.69-2.07-22.73-6.68-5.88-4.45-8.42-11.13-8.42-15.74a12.18,12.18,0,0,1,3.18-7.95c1.75-1.91,5.56-5.56,14.62-11.76.32-.16.48-.32.48-.64a1.05,1.05,0,0,0-.64-.79c-7.47-2.86-9.7-7.47-10.33-10v-.32c-.16-1-.48-1.91,1-2.86,1.11-.79,2.7-1.75,4.45-2.86a65.3,65.3,0,0,0,7.31-4.77,1.16,1.16,0,0,0,.32-1,1.05,1.05,0,0,0-.64-.79c-11.12-3.66-16.69-11.92-16.69-24.32a24.13,24.13,0,0,1,10.17-20c4.45-3.5,15.58-7.79,22.89-7.79h.48c7.47.16,11.6,1.75,17.48,3.82A29.42,29.42,0,0,0,607,502.63c6.2,0,8.9-1.91,11.12-4.13a8.63,8.63,0,0,1,.64,3.18,12,12,0,0,1-2.07,7.31c-1.27,1.75-4.13,3-7,3h-.8a35.42,35.42,0,0,1-4.13-.64l-.63.32c-.16.32,0,.64.16,1.11l.16.32a58.67,58.67,0,0,1,1,6.83c0,13-5.25,18.75-10.81,23a36.6,36.6,0,0,1-18.6,7.15,20,20,0,0,0-2.23.16c-.79,0-1.91.16-2.07.16h-.16c-1.27.32-4.45,1.91-4.45,4.61,0,2.38,1.43,5.25,8.26,5.72,1.43.16,2.86.16,4.45.32,9.06.63,20.35,1.43,25.59,3.18a17.81,17.81,0,0,1,11.92,17c0,11.76-8.42,22.73-22.41,29.57a51.13,51.13,0,0,1-21.14,4.61Zm90.6-110.79a14.76,14.76,0,0,0-8.58,2.38c-6.2,3.82-9.38,11.45-9.38,22.57,0,20.83,10.49,35.45,25.43,35.45a16.17,16.17,0,0,0,11-3.82c4.61-3.82,7-11.45,7-22.1,0-20.66-10.33-34.49-25.43-34.49Zm2.86,68c-27,0-36.72-19.87-36.72-38.47,0-13,5.25-23,15.74-30.2a47.84,47.84,0,0,1,24.32-7.15c20.66,0,35.13,14.78,35.13,36.08,0,14.46-5.72,25.91-16.69,32.9-5.25,3.5-14.31,6.83-21.78,6.83h0ZM384,504.69a14.77,14.77,0,0,0-8.58,2.38c-6.2,3.82-9.38,11.45-9.38,22.57,0,20.83,10.49,35.45,25.43,35.45a16.18,16.18,0,0,0,11-3.82c4.61-3.82,7-11.45,7-22.1,0-20.66-10.17-34.49-25.43-34.49Zm2.86,68c-27,0-36.72-19.87-36.72-38.47,0-13,5.25-23,15.74-30.2a47.84,47.84,0,0,1,24.32-7.15c20.66,0,35.13,14.78,35.13,36.08,0,14.46-5.72,25.91-16.69,32.9-5.09,3.5-14.15,6.83-21.78,6.83Zm-181.69-1.59a6.79,6.79,0,0,1-.48-3.66,5.37,5.37,0,0,1,.48-2.38,58.63,58.63,0,0,0,7-1.43c3.18-.8,4.45-2.54,4.61-6.52.48-9.54.48-27.66.32-40.22v-.32c0-1.43,0-3.18-1.75-4.45a35.91,35.91,0,0,0-9.54-4.13c-1.43-.47-2.38-1.27-2.23-2.22,0-1,1-2.07,3-2.39,5.25-.48,18.91-3.81,24.32-6.2a3.93,3.93,0,0,1,.8,2.54l-.16,1.75c-.16,1.75-.32,3.82-.32,5.88a1.23,1.23,0,0,0,1.27,1.11,2.24,2.24,0,0,0,1-.32c10.17-7.95,19.39-10.81,24.16-10.81,7.79,0,13.83,3.66,18.44,11.29a1.2,1.2,0,0,0,1.11.64,1.13,1.13,0,0,0,1-.48c9.38-7.15,18.76-11.45,25-11.45,14.78,0,23.53,11,23.53,29.57,0,5.25,0,12.08-.16,18.28,0,5.56-.16,10.65-.16,14.31,0,.79,1.11,3.34,2.86,3.81,2.23,1.11,5.25,1.59,9.22,2.23h.16c.32,1.11-.32,5.25-1,6a39.06,39.06,0,0,1-4-.16q-6-.31-12.08-.32c-9.85,0-14.94.16-19.87.48-.32-1.27-.48-5.09,0-6a49.35,49.35,0,0,0,6-1.43c3.18-1,4-2.39,4.13-6.52,0-3,.63-28.77-.32-35-1-6.36-5.72-13.83-16.21-13.83-4,0-10.17,1.59-16.21,6.2a2.84,2.84,0,0,0-.64,1.59v.16c.64,3.34.64,7.15.64,13v10.33c0,7.15-.16,13.83,0,18.91,0,3.5,2.07,4.29,3.82,4.93,1,.16,1.59.32,2.38.48,1.43.32,2.86.64,5.09,1.11a8.58,8.58,0,0,1-.16,4.45,3,3,0,0,1-.64,1.59c-5.4-.16-11-.32-19.07-.32-2.38,0-6.52.16-10,.16-2.86,0-5.56.16-7.15.16a8.38,8.38,0,0,1-.48-3.18,5,5,0,0,1,.64-2.86,10.75,10.75,0,0,1,2.23-.32c1.91-.32,3.5-.64,5.08-1,2.7-.79,3.66-2.23,3.82-5.72.48-7.95,1-30.68-.16-36.4-1.91-9.22-7.15-13.83-15.58-13.83-4.93,0-11.13,2.38-16.21,6.2a5.13,5.13,0,0,0-1.43,3.65v9.38c0,11.44,0,25.75.16,32,.16,1.91.79,4.13,4.45,4.93a33.29,33.29,0,0,0,3.66.64l2.86.48a13.33,13.33,0,0,1-.48,6c-1.59,0-3.5-.16-5.72-.16-3.34-.16-7.63-.32-12.4-.32-5.56,0-9.54.16-12.72.32a38.4,38.4,0,0,0-5.88-.32Z" transform="translate(-13.77 -12.33)" style="fill:#442d22"/><path d="M121.57,609.29l-6.52-2.23s.8-33.22-11.13-35.6c-7.95-9.22,1.27-391,29.89-1.27,0,0-9.86,4.93-11.6,13.35-1.91,8.27-.64,25.75-.64,25.75Z" transform="translate(-13.77 -12.33)" style="fill:#fff"/><path d="M121.57,609.29l-6.52-2.23s.8-33.22-11.13-35.6c-7.95-9.22,1.27-391,29.89-1.27,0,0-9.86,4.93-11.6,13.35-1.91,8.27-.64,25.75-.64,25.75Z" transform="translate(-13.77 -12.33)" style="fill:#a6a385"/><path d="M125.07,577.18s57.07-37.51,43.71-115.56c-12.87-56.74-43.23-75.34-46.57-82.5-3.66-5.09-7.15-14-7.15-14L117.44,523c0,.16-4.93,48.32,7.63,54.21" transform="translate(-13.77 -12.33)" style="fill:#fff"/><path d="M125.07,577.18s57.07-37.51,43.71-115.56c-12.87-56.74-43.23-75.34-46.57-82.5-3.66-5.09-7.15-14-7.15-14L117.44,523c0,.16-4.93,48.32,7.63,54.21" transform="translate(-13.77 -12.33)" style="fill:#499d4a"/><path d="M111.72,579.24S58.15,542.68,61.33,478.31c3-64.38,40.85-96,48.16-101.73,4.77-5.09,4.93-7,5.25-12.08,3.34,7.15,2.7,107,3.18,118.74C119.35,528.54,115.38,570.66,111.72,579.24Z" transform="translate(-13.77 -12.33)" style="fill:#fff"/><path d="M111.72,579.24S58.15,542.68,61.33,478.31c3-64.38,40.85-96,48.16-101.73,4.77-5.09,4.93-7,5.25-12.08,3.34,7.15,2.7,107,3.18,118.74C119.35,528.54,115.38,570.66,111.72,579.24Z" transform="translate(-13.77 -12.33)" style="fill:#58aa50"/><path d="M882.34,468.29c-.79.16-1.59,1.91-1.59,2.86-.16,6.36-.32,23.21-.32,34.65a1.18,1.18,0,0,0,1,1c2.38.16,8.11.32,13,.32,6.83,0,10.81-1,13-1.91,5.72-2.86,8.42-9.06,8.42-15.9,0-15.42-10.81-21.3-26.86-21.3a25.5,25.5,0,0,0-6.68.32Zm41,71.05c0-15.74-11.6-24.48-32.59-24.48-1,0-7.63-.16-9.22.16-.48.16-1.11.48-1.11,1,0,11.28-.16,29.25.32,36.24.32,3,2.54,7.31,5.25,8.58,2.86,1.59,9.38,1.91,13.83,1.91,12.56,0,23.53-7,23.53-23.37Zm-73.44-79.8c1.59,0,6.36.48,18.6.48,11.6,0,20.82-.32,32.11-.32,13.83,0,32.9,4.93,32.9,25.59,0,10.17-7.15,18.28-16.53,22.25-.48.16-.48.48,0,.63,13.35,3.34,25.12,11.6,25.12,27.18,0,15.26-9.54,25-23.37,31-8.42,3.66-18.91,4.93-29.57,4.93-8.11,0-29.88-1-42-.63-1.27-.48,1.11-6.2,2.22-7.15a29.67,29.67,0,0,0,8.11-1.27c4.29-1.11,4.77-2.38,5.4-8.9.32-5.56.32-25.28.32-39.26,0-19.23.16-32.27,0-38.63-.16-4.93-1.91-6.52-5.4-7.47-2.7-.48-7.15-1.11-10.81-1.59-.8-.8,1.91-6.2,2.86-6.83Zm-91.72,98.87c3.82,3,11.29,4.29,18,4.29,8.58,0,17.17-1.59,25.43-9.06,8.42-7.63,14.31-19.39,14.31-38.15,0-18-6.83-32.59-20.82-41.17-7.95-4.93-18.12-7-29.88-7-3.5,0-6.83.16-8.9,1.11A4.67,4.67,0,0,0,754.7,471c-.32,3.18-.32,27.66-.32,42,0,14.78,0,35.45.32,37.83,0,2.39,1.11,6,3.5,7.63Zm-36.08-98.87c3,0,14.62.48,20.19.48,10,0,17.17-.48,36.08-.48,15.9,0,29.25,4.29,38.79,12.4,11.6,10,17.65,23.84,17.65,40.69,0,24-11,37.83-21.94,45.78-11,8.11-25.27,12.87-45.62,12.87-10.81,0-29.41-.32-44.83-.48h-.16c-.79-1.43,1.27-7,2.54-7.15,4.13-.48,5.25-.64,7.31-1.43,3.34-1.27,4-3,4.45-8.9.48-11,.32-24.16.32-39.1,0-10.65.16-31.47-.16-38.15-.48-5.56-2.86-7-7.63-7.95-2.38-.48-5.56-1.11-10-1.59-.64-1.11,2.22-6,3-7Z" transform="translate(-13.77 -12.33)" style="fill:#fff"/><path d="M529.77,564.62a32,32,0,0,1-10.33-2.7,4.84,4.84,0,0,1-1.27-2.54c-.32-5.56-.32-21.46-.32-32.11,0-8.58-1.43-16.06-5.09-21.3a21.7,21.7,0,0,0-18.44-9.54c-7,0-16.37,4.77-24.16,11.44-.16.16-1.43,1.27-1.27-.48,0-1.75.32-5.25.48-7.63a4.12,4.12,0,0,0-1.11-3.34c-5.09,2.54-19.39,5.88-24.64,6.36-3.81.8-4.77,4.45-.79,5.72H443a35.27,35.27,0,0,1,9.38,4.13c1.59,1.27,1.43,3,1.43,4.45.16,11.92.16,30.2-.32,40.22-.16,4-1.27,5.4-4.13,6l.32-.16a62.76,62.76,0,0,1-6.68,1.27c-1,1-1,6,0,7.15,1.75,0,11-.48,18.6-.48,10.49,0,15.9.48,18.6.48,1.11-1.27,1.43-6,.8-7.15a29.43,29.43,0,0,1-7.31-1.11c-2.86-.64-3.66-2.07-3.82-5.4-.32-8.43-.32-26.23-.32-38.31,0-3.34,1-4.93,1.91-5.88a24.05,24.05,0,0,1,14.78-5.4,16.43,16.43,0,0,1,11,3.66c3.5,2.86,4.61,7,5.09,10,.79,6.83.48,20.35.48,32.11,0,6.36-.48,7.95-2.86,8.74a30.25,30.25,0,0,1-7.31,1.43c-1.11,1.11-.79,6,0,7.16,4.61,0,10-.48,18-.48,9.85,0,16.21.48,18.76.48.79-1,1.11-5.56.48-6.84Zm44-60.72c-8.42,0-13.67,6.52-13.67,16.69,0,10.33,4.61,22.25,17.64,22.25,2.23,0,6.36-1,8.26-3.18,3-2.86,5.09-8.58,5.09-14.62,0-13.19-6.52-21.14-17.33-21.14Zm-1.11,70.26a13.66,13.66,0,0,0-6.83,1.75c-6.68,4.29-9.7,8.42-9.7,13.35a14.06,14.06,0,0,0,5.56,11.44c4.61,4,11,5.88,19.07,5.88,16.21,0,23.37-8.74,23.37-17.32,0-6-3-10-9.22-12.24-4.45-1.91-12.56-2.86-22.25-2.86Zm1.11,41.33c-9.7,0-16.69-2.07-22.73-6.68-5.88-4.45-8.42-11.13-8.42-15.74a12.18,12.18,0,0,1,3.18-7.95c1.75-1.91,5.56-5.56,14.62-11.76.32-.16.48-.32.48-.64a1.05,1.05,0,0,0-.64-.79c-7.47-2.86-9.7-7.47-10.33-10v-.32c-.16-1-.48-1.91,1-2.86,1.11-.79,2.7-1.75,4.45-2.86a65.3,65.3,0,0,0,7.31-4.77,1.16,1.16,0,0,0,.32-1,1.05,1.05,0,0,0-.64-.79c-11.12-3.66-16.69-11.92-16.69-24.32a24.13,24.13,0,0,1,10.17-20c4.45-3.5,15.58-7.79,22.89-7.79h.48c7.47.16,11.6,1.75,17.48,3.82A29.42,29.42,0,0,0,607,502.63c6.2,0,8.9-1.91,11.12-4.13a8.63,8.63,0,0,1,.64,3.18,12,12,0,0,1-2.07,7.31c-1.27,1.75-4.13,3-7,3h-.8a35.42,35.42,0,0,1-4.13-.64l-.63.32c-.16.32,0,.64.16,1.11l.16.32a58.67,58.67,0,0,1,1,6.83c0,13-5.25,18.75-10.81,23a36.6,36.6,0,0,1-18.6,7.15,20,20,0,0,0-2.23.16c-.79,0-1.91.16-2.07.16h-.16c-1.27.32-4.45,1.91-4.45,4.61,0,2.38,1.43,5.25,8.26,5.72,1.43.16,2.86.16,4.45.32,9.06.63,20.35,1.43,25.59,3.18a17.81,17.81,0,0,1,11.92,17c0,11.76-8.42,22.73-22.41,29.57a51.13,51.13,0,0,1-21.14,4.61Zm90.6-110.79a14.76,14.76,0,0,0-8.58,2.38c-6.2,3.82-9.38,11.45-9.38,22.57,0,20.83,10.49,35.45,25.43,35.45a16.17,16.17,0,0,0,11-3.82c4.61-3.82,7-11.45,7-22.1,0-20.66-10.33-34.49-25.43-34.49Zm2.86,68c-27,0-36.72-19.87-36.72-38.47,0-13,5.25-23,15.74-30.2a47.84,47.84,0,0,1,24.32-7.15c20.66,0,35.13,14.78,35.13,36.08,0,14.46-5.72,25.91-16.69,32.9-5.25,3.5-14.31,6.83-21.78,6.83h0ZM384,504.69a14.77,14.77,0,0,0-8.58,2.38c-6.2,3.82-9.38,11.45-9.38,22.57,0,20.83,10.49,35.45,25.43,35.45a16.18,16.18,0,0,0,11-3.82c4.61-3.82,7-11.45,7-22.1,0-20.66-10.17-34.49-25.43-34.49Zm2.86,68c-27,0-36.72-19.87-36.72-38.47,0-13,5.25-23,15.74-30.2a47.84,47.84,0,0,1,24.32-7.15c20.66,0,35.13,14.78,35.13,36.08,0,14.46-5.72,25.91-16.69,32.9-5.09,3.5-14.15,6.83-21.78,6.83Zm-181.69-1.59a6.79,6.79,0,0,1-.48-3.66,5.37,5.37,0,0,1,.48-2.38,58.63,58.63,0,0,0,7-1.43c3.18-.8,4.45-2.54,4.61-6.52.48-9.54.48-27.66.32-40.22v-.32c0-1.43,0-3.18-1.75-4.45a35.91,35.91,0,0,0-9.54-4.13c-1.43-.47-2.38-1.27-2.23-2.22,0-1,1-2.07,3-2.39,5.25-.48,18.91-3.81,24.32-6.2a3.93,3.93,0,0,1,.8,2.54l-.16,1.75c-.16,1.75-.32,3.82-.32,5.88a1.23,1.23,0,0,0,1.27,1.11,2.24,2.24,0,0,0,1-.32c10.17-7.95,19.39-10.81,24.16-10.81,7.79,0,13.83,3.66,18.44,11.29a1.2,1.2,0,0,0,1.11.64,1.13,1.13,0,0,0,1-.48c9.38-7.15,18.76-11.45,25-11.45,14.78,0,23.53,11,23.53,29.57,0,5.25,0,12.08-.16,18.28,0,5.56-.16,10.65-.16,14.31,0,.79,1.11,3.34,2.86,3.81,2.23,1.11,5.25,1.59,9.22,2.23h.16c.32,1.11-.32,5.25-1,6a39.06,39.06,0,0,1-4-.16q-6-.31-12.08-.32c-9.85,0-14.94.16-19.87.48-.32-1.27-.48-5.09,0-6a49.35,49.35,0,0,0,6-1.43c3.18-1,4-2.39,4.13-6.52,0-3,.63-28.77-.32-35-1-6.36-5.72-13.83-16.21-13.83-4,0-10.17,1.59-16.21,6.2a2.84,2.84,0,0,0-.64,1.59v.16c.64,3.34.64,7.15.64,13v10.33c0,7.15-.16,13.83,0,18.91,0,3.5,2.07,4.29,3.82,4.93,1,.16,1.59.32,2.38.48,1.43.32,2.86.64,5.09,1.11a8.58,8.58,0,0,1-.16,4.45,3,3,0,0,1-.64,1.59c-5.4-.16-11-.32-19.07-.32-2.38,0-6.52.16-10,.16-2.86,0-5.56.16-7.15.16a8.38,8.38,0,0,1-.48-3.18,5,5,0,0,1,.64-2.86,10.75,10.75,0,0,1,2.23-.32c1.91-.32,3.5-.64,5.08-1,2.7-.79,3.66-2.23,3.82-5.72.48-7.95,1-30.68-.16-36.4-1.91-9.22-7.15-13.83-15.58-13.83-4.93,0-11.13,2.38-16.21,6.2a5.13,5.13,0,0,0-1.43,3.65v9.38c0,11.44,0,25.75.16,32,.16,1.91.79,4.13,4.45,4.93a33.29,33.29,0,0,0,3.66.64l2.86.48a13.33,13.33,0,0,1-.48,6c-1.59,0-3.5-.16-5.72-.16-3.34-.16-7.63-.32-12.4-.32-5.56,0-9.54.16-12.72.32a38.4,38.4,0,0,0-5.88-.32Z" transform="translate(-13.77 -12.33)" style="fill:#fff"/><path d="M121.57,609.29l-6.52-2.23s.8-33.22-11.13-35.6c-7.95-9.22,1.27-391,29.89-1.27,0,0-9.86,4.93-11.6,13.35-1.91,8.27-.64,25.75-.64,25.75Z" transform="translate(-13.77 -12.33)" style="fill:#fff"/><path d="M121.57,609.29l-6.52-2.23s.8-33.22-11.13-35.6c-7.95-9.22,1.27-391,29.89-1.27,0,0-9.86,4.93-11.6,13.35-1.91,8.27-.64,25.75-.64,25.75Z" transform="translate(-13.77 -12.33)" style="fill:#fff"/><path d="M125.07,577.18s57.07-37.51,43.71-115.56c-12.87-56.74-43.23-75.34-46.57-82.5-3.66-5.09-7.15-14-7.15-14L117.44,523c0,.16-4.93,48.32,7.63,54.21" transform="translate(-13.77 -12.33)" style="fill:#fff"/><path d="M125.07,577.18s57.07-37.51,43.71-115.56c-12.87-56.74-43.23-75.34-46.57-82.5-3.66-5.09-7.15-14-7.15-14L117.44,523c0,.16-4.93,48.32,7.63,54.21" transform="translate(-13.77 -12.33)" style="fill:#fff"/><path d="M111.72,579.24S58.15,542.68,61.33,478.31c3-64.38,40.85-96,48.16-101.73,4.77-5.09,4.93-7,5.25-12.08,3.34,7.15,2.7,107,3.18,118.74C119.35,528.54,115.38,570.66,111.72,579.24Z" transform="translate(-13.77 -12.33)" style="fill:#fff"/><path d="M111.72,579.24S58.15,542.68,61.33,478.31c3-64.38,40.85-96,48.16-101.73,4.77-5.09,4.93-7,5.25-12.08,3.34,7.15,2.7,107,3.18,118.74C119.35,528.54,115.38,570.66,111.72,579.24Z" transform="translate(-13.77 -12.33)" style="fill:#fff"/></svg>