<svg xmlns="http://www.w3.org/2000/svg" xmlns:xlink="http://www.w3.org/1999/xlink" viewBox="0 0 978.47 978.47"><defs><linearGradient id="linear-gradient" x1="489.23" y1="965.47" x2="489.23" y2="13" gradientUnits="userSpaceOnUse"><stop offset="0" stop-color="#32ff00"/><stop offset="1" stop-color="#69f726"/></linearGradient><radialGradient id="radial-gradient" cx="489.23" cy="489.23" r="486.23" gradientUnits="userSpaceOnUse"><stop offset="0" stop-color="#fff"/><stop offset="0.54" stop-color="#fdfdfd"/><stop offset="0.74" stop-color="#f6f6f6"/><stop offset="0.88" stop-color="#ebebeb"/><stop offset="0.99" stop-color="#dadada"/><stop offset="1" stop-color="#d8d8d8"/></radialGradient><clipPath id="clip-path" transform="translate(-10.77 -9.33)"><path d="M397.22,379.1,328.16,419a8.34,8.34,0,0,0-4.17,7.22V506a8.33,8.33,0,0,0,4.17,7.22l69.07,39.89a8.36,8.36,0,0,0,8.34,0l69.06-39.89A8.35,8.35,0,0,0,478.8,506V426.18a8.34,8.34,0,0,0-4.18-7.22l-69-39.86a8.4,8.4,0,0,0-8.36,0" style="fill:#fff"/></clipPath><clipPath id="clip-path-2" transform="translate(-10.77 -9.33)"><path d="M325.7,511a8.36,8.36,0,0,0,2.46,2.16l59.24,34.22,9.87,5.67a8.37,8.37,0,0,0,4.81,1.09,8.53,8.53,0,0,0,1.64-.3L476.56,420.5a8.26,8.26,0,0,0-1.94-1.54L429.4,392.84l-23.9-13.75a8.72,8.72,0,0,0-2.16-.87Z" style="fill:#fff"/></clipPath><clipPath id="clip-path-3" transform="translate(-10.77 -9.33)"><path d="M400.56,378a8.42,8.42,0,0,0-3.34,1.07l-68.87,39.75,74.26,135.26a8.28,8.28,0,0,0,3-1l69.06-39.89a8.37,8.37,0,0,0,4-5.7L403,378.17a8.67,8.67,0,0,0-1.69-.17c-.23,0-.46,0-.69,0" style="fill:#fff"/></clipPath></defs><title>nodejs</title><g id="Layer_2" data-name="Layer 2"><rect x="13" y="13" width="952.47" height="952.47" rx="254.17" ry="254.17" style="fill:url(#linear-gradient)"/><rect x="13" y="13" width="952.47" height="952.47" rx="254.17" ry="254.17" style="fill:none;stroke:#fff;stroke-miterlimit:10;stroke-width:26px"/><rect x="13" y="13" width="952.47" height="952.47" rx="254.17" ry="254.17" style="fill:none;stroke-miterlimit:10;stroke-width:20px;stroke:url(#radial-gradient)"/></g><g id="Layer_1" data-name="Layer 1"><path d="M492.18,720.63a13.78,13.78,0,0,1-6.87-1.84l-21.86-12.94c-3.27-1.83-1.67-2.47-.6-2.84a44.14,44.14,0,0,0,9.89-4.51,1.66,1.66,0,0,1,1.63.11l16.8,10a2.22,2.22,0,0,0,2,0l65.49-37.8a2.06,2.06,0,0,0,1-1.77V593.44a2.1,2.1,0,0,0-1-1.8L493.2,553.87a2,2,0,0,0-2,0l-65.45,37.77a2.09,2.09,0,0,0-1,1.79V669a2,2,0,0,0,1,1.75l17.93,10.36c9.74,4.87,15.69-.87,15.69-6.64V599.88a1.87,1.87,0,0,1,1.9-1.89h8.29a1.88,1.88,0,0,1,1.89,1.89V674.5c0,13-7.08,20.44-19.39,20.44-3.79,0-6.77,0-15.1-4.1l-17.18-9.9a13.85,13.85,0,0,1-6.87-12V593.42a13.76,13.76,0,0,1,6.87-11.93l65.56-37.82a14.36,14.36,0,0,1,13.77,0l65.47,37.84a13.82,13.82,0,0,1,6.87,11.93V669a13.86,13.86,0,0,1-6.87,11.93l-65.47,37.82a13.76,13.76,0,0,1-6.9,1.84" transform="translate(-10.77 -9.33)" style="fill:#fff"/><path d="M512.41,668.56c-28.66,0-34.66-13.15-34.66-24.19a1.88,1.88,0,0,1,1.9-1.89h8.46a1.89,1.89,0,0,1,1.87,1.6c1.28,8.62,5.08,13,22.41,13,13.8,0,19.67-3.12,19.67-10.44,0-4.21-1.67-7.34-23.11-9.44-17.93-1.77-29-5.72-29-20.07,0-13.21,11.15-21.08,29.82-21.08,21,0,31.36,7.28,32.67,22.92a1.91,1.91,0,0,1-.51,1.46,2,2,0,0,1-1.39.61H532a1.88,1.88,0,0,1-1.84-1.48c-2-9.07-7-12-20.46-12-15.07,0-16.82,5.25-16.82,9.18,0,4.77,2.07,6.16,22.39,8.85C535.41,628.28,545,632,545,646.19s-11.9,22.44-32.66,22.44m79.77-80.15h2.2a1.91,1.91,0,0,0,2.15-2c0-1.93-1.33-1.93-2.07-1.93H592.1Zm-2.67-6.2h4.87c1.67,0,5,0,5,3.74a3.25,3.25,0,0,1-2.67,3.48c2,.13,2.08,1.41,2.34,3.21a13.82,13.82,0,0,0,.74,3.74h-3c-.08-.66-.54-4.26-.54-4.46-.2-.8-.48-1.2-1.48-1.2h-2.48v5.67h-2.74Zm-5.85,7a10.58,10.58,0,1,0,10.54-10.56,10.6,10.6,0,0,0-10.54,10.56m23.21,0a12.62,12.62,0,1,1-12.62-12.62,12.66,12.66,0,0,1,12.62,12.62" transform="translate(-10.77 -9.33)" style="fill:#fff"/><path d="M289.38,424.94a8.39,8.39,0,0,0-4.19-7.29l-69.43-40a8.11,8.11,0,0,0-3.82-1.1h-.72a8.25,8.25,0,0,0-3.84,1.1l-69.43,40a8.45,8.45,0,0,0-4.2,7.29l.15,107.6a4.13,4.13,0,0,0,2.08,3.62,4,4,0,0,0,4.16,0l41.28-23.64a8.47,8.47,0,0,0,4.2-7.28V455a8.36,8.36,0,0,1,4.19-7.26l17.57-10.12a8.34,8.34,0,0,1,4.2-1.13,8.19,8.19,0,0,1,4.17,1.13l17.57,10.12a8.37,8.37,0,0,1,4.2,7.26v50.27a8.49,8.49,0,0,0,4.2,7.28L283,536.15a4.1,4.1,0,0,0,4.2,0,4.21,4.21,0,0,0,2.08-3.62ZM617,481a2.08,2.08,0,0,1-1,1.81l-23.85,13.75a2.1,2.1,0,0,1-2.09,0l-23.85-13.75a2.08,2.08,0,0,1-1-1.81V453.43a2.11,2.11,0,0,1,1-1.82L590,437.84a2.12,2.12,0,0,1,2.11,0L616,451.61a2.09,2.09,0,0,1,1,1.82ZM623.47,277a4.19,4.19,0,0,0-6.24,3.67V387.25a2.93,2.93,0,0,1-4.4,2.54l-17.39-10a8.37,8.37,0,0,0-8.38,0L517.6,419.86a8.37,8.37,0,0,0-4.2,7.25v80.2a8.4,8.4,0,0,0,4.2,7.26l69.46,40.11a8.42,8.42,0,0,0,8.39,0l69.46-40.13a8.41,8.41,0,0,0,4.2-7.26V307.42a8.41,8.41,0,0,0-4.31-7.33ZM854.76,452.7a8.39,8.39,0,0,0,4.17-7.25V426a8.39,8.39,0,0,0-4.18-7.25l-69-40.06a8.38,8.38,0,0,0-8.41,0l-69.44,40.08a8.37,8.37,0,0,0-4.2,7.26V506.2a8.42,8.42,0,0,0,4.23,7.29l69,39.33a8.36,8.36,0,0,0,8.23,0l41.74-23.2a4.19,4.19,0,0,0,0-7.29l-69.87-40.1a4.16,4.16,0,0,1-2.11-3.62V453.52a4.16,4.16,0,0,1,2.1-3.63l21.74-12.54a4.14,4.14,0,0,1,4.18,0l21.75,12.54a4.18,4.18,0,0,1,2.1,3.62v19.77a4.18,4.18,0,0,0,6.29,3.62Z" transform="translate(-10.77 -9.33)" style="fill:#fff"/><path d="M780.52,449a1.59,1.59,0,0,1,1.61,0l13.33,7.69a1.61,1.61,0,0,1,.8,1.39v15.39a1.61,1.61,0,0,1-.8,1.39l-13.33,7.69a1.59,1.59,0,0,1-1.61,0l-13.32-7.69a1.6,1.6,0,0,1-.82-1.39V458a1.59,1.59,0,0,1,.8-1.39Z" transform="translate(-10.77 -9.33)" style="fill:#fff"/><path d="M397.22,379.1,328.16,419a8.34,8.34,0,0,0-4.17,7.22V506a8.33,8.33,0,0,0,4.17,7.22l69.07,39.89a8.36,8.36,0,0,0,8.34,0l69.06-39.89A8.35,8.35,0,0,0,478.8,506V426.18a8.34,8.34,0,0,0-4.18-7.22l-69-39.86a8.4,8.4,0,0,0-8.36,0" transform="translate(-10.77 -9.33)" style="fill:#fff"/><g style="clip-path:url(#clip-path)"><path d="M548.59,412.19,354,316.8,254.19,520.36l194.61,95.4Z" transform="translate(-10.77 -9.33)" style="fill:#fff"/></g><path d="M325.7,511a8.36,8.36,0,0,0,2.46,2.16l59.24,34.22,9.87,5.67a8.37,8.37,0,0,0,4.81,1.09,8.53,8.53,0,0,0,1.64-.3L476.56,420.5a8.26,8.26,0,0,0-1.94-1.54L429.4,392.84l-23.9-13.75a8.72,8.72,0,0,0-2.16-.87Z" transform="translate(-10.77 -9.33)" style="fill:#fff"/><g style="clip-path:url(#clip-path-2)"><path d="M241.56,440.41,379,626.39,560.7,492.12l-137.42-186Z" transform="translate(-10.77 -9.33)" style="fill:#fff"/></g><path d="M400.56,378a8.42,8.42,0,0,0-3.34,1.07l-68.87,39.75,74.26,135.26a8.28,8.28,0,0,0,3-1l69.06-39.89a8.37,8.37,0,0,0,4-5.7L403,378.17a8.67,8.67,0,0,0-1.69-.17c-.23,0-.46,0-.69,0" transform="translate(-10.77 -9.33)" style="fill:#fff"/><g style="clip-path:url(#clip-path-3)"><path d="M328.36,378V554.11h150.3V378Z" transform="translate(-10.77 -9.33)" style="fill:#fff"/></g></g></svg>