<svg xmlns="http://www.w3.org/2000/svg" xmlns:xlink="http://www.w3.org/1999/xlink" viewBox="0 0 978.47 978.47"><defs><linearGradient id="linear-gradient" x1="489.23" y1="965.47" x2="489.23" y2="13" gradientUnits="userSpaceOnUse"><stop offset="0" stop-color="#00e7ff"/><stop offset="1" stop-color="#03b8ff"/></linearGradient><radialGradient id="radial-gradient" cx="489.23" cy="489.23" r="486.23" gradientUnits="userSpaceOnUse"><stop offset="0" stop-color="#fff"/><stop offset="0.54" stop-color="#fdfdfd"/><stop offset="0.74" stop-color="#f6f6f6"/><stop offset="0.88" stop-color="#ebebeb"/><stop offset="0.99" stop-color="#dadada"/><stop offset="1" stop-color="#d8d8d8"/></radialGradient></defs><title>react</title><g id="Layer_2" data-name="Layer 2"><rect x="13" y="13" width="952.47" height="952.47" rx="254.17" ry="254.17" style="fill:url(#linear-gradient)"/><rect x="13" y="13" width="952.47" height="952.47" rx="254.17" ry="254.17" style="fill:none;stroke:#fff;stroke-miterlimit:10;stroke-width:26px"/><rect x="13" y="13" width="952.47" height="952.47" rx="254.17" ry="254.17" style="fill:none;stroke-miterlimit:10;stroke-width:20px;stroke:url(#radial-gradient)"/></g><g id="Layer_1" data-name="Layer 1"><circle cx="489.23" cy="477.51" r="64.84" style="fill:#fff"/><path d="M500,355c87.06,0,167.93,12.49,228.91,33.48,73.47,25.29,118.64,63.63,118.64,98.35,0,36.18-47.88,76.91-126.77,103C661.13,609.65,582.64,620,500,620c-84.73,0-165-9.68-225.27-30.3-76.32-26.09-122.28-67.34-122.28-102.83,0-34.43,43.13-72.48,115.57-97.73C329.22,367.77,412.09,355,500,355Z" transform="translate(-10.77 -9.33)" style="fill:none;stroke:#fff;stroke-miterlimit:10;stroke-width:31.019843101501465px"/><path d="M385.24,421.31C428.73,345.89,480,282.07,528.6,239.74c58.61-51,114.39-71,144.47-53.64C704.41,204.16,715.77,266,699,347.39c-12.68,61.55-43,134.69-84.24,206.28-42.33,73.4-90.8,138.06-138.78,180C415.26,786.76,356.55,806,325.81,788.24,296,771,284.57,714.67,298.88,639.3,311,575.62,341.32,497.46,385.24,421.31Z" transform="translate(-10.77 -9.33)" style="fill:none;stroke:#fff;stroke-miterlimit:10;stroke-width:31.019843101501465px"/><path d="M385.35,553.86C341.73,478.52,312,402.27,299.64,339c-14.92-76.26-4.37-134.56,25.67-152,31.31-18.13,90.55,2.9,152.7,58.08,47,41.72,95.24,104.48,136.65,176,42.45,73.33,74.27,147.61,86.64,210.14,15.66,79.12,3,139.57-27.73,157.35-29.8,17.25-84.33-1-142.48-51.05C482,695.27,429.39,629.94,385.35,553.86Z" transform="translate(-10.77 -9.33)" style="fill:none;stroke:#fff;stroke-miterlimit:10;stroke-width:31.019843101501465px"/></g></svg>