<?xml version="1.0" ?><!DOCTYPE svg  PUBLIC '-//W3C//DTD SVG 1.1//EN'  'http://www.w3.org/Graphics/SVG/1.1/DTD/svg11.dtd'><svg enable-background="new 0 0 1024 1024" height="1024px" id="Layer_1" version="1.1" viewBox="0 0 1024 1024" width="1024px" xml:space="preserve" xmlns="http://www.w3.org/2000/svg" xmlns:xlink="http://www.w3.org/1999/xlink"><g id="Background"><path d="M983.766,312.727c-25.785-60.972-62.694-115.728-109.705-162.744   C827.05,102.966,772.299,66.049,711.329,40.257C648.194,13.548,581.14,0.004,512,0c-69.104,0-136.155,13.54-199.289,40.243   c-60.969,25.787-115.721,62.699-162.735,109.71c-47.014,47.011-83.929,101.761-109.72,162.728   C13.548,375.814,0.004,442.865,0,511.97c-0.004,69.109,13.533,136.165,40.234,199.304   c25.785,60.973,62.696,115.728,109.707,162.743c47.011,47.018,101.762,83.935,162.732,109.727   c63.136,26.708,130.19,40.253,199.323,40.257h0.009c69.104,0,136.153-13.54,199.288-40.243   c60.969-25.787,115.72-62.699,162.733-109.709c47.013-47.01,83.929-101.76,109.72-162.728   c26.708-63.134,40.251-130.186,40.255-199.29C1024.004,442.921,1010.467,375.866,983.766,312.727z M512.004,976.328h-0.03   c-124.026-0.007-240.627-48.313-328.323-136.019C95.957,752.604,47.665,635.999,47.672,511.973   c0.015-256.016,208.312-464.3,464.356-464.3c124.026,0.007,240.626,48.312,328.32,136.017   c87.695,87.706,135.986,204.311,135.979,328.337C976.313,768.043,768.018,976.328,512.004,976.328z" fill="#262626"/></g><g id="Facebook"><path d="M672.75,305.64V203.89c-3.736,0-7.473-0.007-11.209,0.001   c-8.996,0.02-17.993-0.022-26.99,0.001c-10.972,0.028-21.942-0.046-32.915,0.001c-9.667,0.042-19.337-0.097-29.003,0.003   c-14.592,0.151-28.443,0.868-42.438,5.375c-13.493,4.346-26.158,11.955-36.948,21.081c-6.248,5.284-12.031,10.943-17.269,17.234   c-2.121,2.613-4.097,5.33-5.942,8.14c-5.538,8.431-9.913,17.704-13.567,27.535c-0.821,2.213-1.628,4.432-2.397,6.662   c-5.634,16.324-5.82,34.143-5.82,51.297c0,2.148,0,4.363,0,6.629c0,33.984,0,79.291,0,79.291h-97v112h93.5h2.5v281h111v-283.5   L659,537.999l13.583-110.125L558.75,427.64v-85c0,0-0.25-36.25,30.5-36.75L672.75,305.64z" fill="#262626" id="Facebook_1_"/></g></svg>